MetaMessage('track_name', name='Piano\x00', time=0)
MetaMessage('time_signature', numerator=4, denominator=4, clocks_per_click=24, notated_32nd_notes_per_beat=8, time=0)
MetaMessage('key_signature', key='E', time=0)
MetaMessage('set_tempo', tempo=500000, time=0)
control_change channel=0 control=121 value=0 time=0
program_change channel=0 program=0 time=0
control_change channel=0 control=7 value=100 time=0
control_change channel=0 control=10 value=64 time=0
control_change channel=0 control=91 value=0 time=0
control_change channel=0 control=93 value=0 time=0
MetaMessage('midi_port', port=0, time=0)
note_on channel=0 note=68 velocity=80 time=0
note_on channel=0 note=56 velocity=80 time=0
note_on channel=0 note=64 velocity=80 time=0
MetaMessage('track_name', name='Piano\x00', time=0)
MetaMessage('key_signature', key='E', time=0)
MetaMessage('midi_port', port=0, time=0)
note_on channel=0 note=37 velocity=80 time=0
note_on channel=0 note=49 velocity=80 time=0
note_on channel=0 note=68 velocity=0 time=0.11770833333333333
note_on channel=0 note=73 velocity=80 time=0.007291666666666667
note_on channel=0 note=73 velocity=0 time=0.11770833333333333
note_on channel=0 note=64 velocity=0 time=0.007291666666666667
note_on channel=0 note=64 velocity=80 time=0
note_on channel=0 note=68 velocity=80 time=0.375
note_on channel=0 note=68 velocity=0 time=0.11770833333333333
note_on channel=0 note=61 velocity=80 time=0.007291666666666667
note_on channel=0 note=56 velocity=0 time=0.19895833333333332
note_on channel=0 note=64 velocity=0 time=0
note_on channel=0 note=37 velocity=0 time=0
note_on channel=0 note=49 velocity=0 time=0
note_on channel=0 note=61 velocity=0 time=0.275
note_on channel=0 note=64 velocity=80 time=0.026041666666666668
note_on channel=0 note=64 velocity=0 time=0.11770833333333333
note_on channel=0 note=68 velocity=80 time=0.007291666666666667
note_on channel=0 note=68 velocity=0 time=0.11770833333333333
note_on channel=0 note=73 velocity=80 time=0.007291666666666667
note_on channel=0 note=73 velocity=0 time=0
note_on channel=0 note=73 velocity=80 time=0
note_on channel=0 note=61 velocity=80 time=0
note_on channel=0 note=76 velocity=80 time=0.125
note_on channel=0 note=73 velocity=0 time=0.11145833333333333
note_on channel=0 note=61 velocity=0 time=0
note_on channel=0 note=76 velocity=0 time=0.00625
note_on channel=0 note=76 velocity=80 time=0.007291666666666667
note_on channel=0 note=73 velocity=80 time=0
note_on channel=0 note=64 velocity=80 time=0
note_on channel=0 note=68 velocity=80 time=0
note_on channel=0 note=73 velocity=0 time=0.11770833333333333
note_on channel=0 note=76 velocity=0 time=0.007291666666666667
note_on channel=0 note=76 velocity=80 time=0
note_on channel=0 note=64 velocity=0 time=0.11145833333333333
note_on channel=0 note=68 velocity=0 time=0
note_on channel=0 note=76 velocity=0 time=0.00625
note_on channel=0 note=80 velocity=80 time=0.007291666666666667
note_on channel=0 note=73 velocity=80 time=0
note_on channel=0 note=68 velocity=80 time=0
note_on channel=0 note=73 velocity=0 time=0.11770833333333333
note_on channel=0 note=76 velocity=80 time=0.007291666666666667
note_on channel=0 note=76 velocity=0 time=0.11770833333333333
note_on channel=0 note=73 velocity=80 time=0.007291666666666667
note_on channel=0 note=64 velocity=80 time=0
note_on channel=0 note=69 velocity=80 time=0
note_on channel=0 note=73 velocity=0 time=0.11770833333333333
note_on channel=0 note=76 velocity=80 time=0.007291666666666667
note_on channel=0 note=76 velocity=0 time=0.11770833333333333
note_on channel=0 note=73 velocity=80 time=0.007291666666666667
note_on channel=0 note=80 velocity=0 time=0.21145833333333333
note_on channel=0 note=68 velocity=0 time=0
note_on channel=0 note=64 velocity=0 time=0.0125
note_on channel=0 note=69 velocity=0 time=0
note_on channel=0 note=78 velocity=80 time=0.026041666666666668
note_on channel=0 note=66 velocity=80 time=0
note_on channel=0 note=78 velocity=0 time=0.23645833333333333
note_on channel=0 note=66 velocity=0 time=0
note_on channel=0 note=76 velocity=80 time=0.013541666666666667
note_on channel=0 note=64 velocity=80 time=0
note_on channel=0 note=73 velocity=0 time=0.09270833333333334
note_on channel=0 note=76 velocity=0 time=0.03229166666666666
note_on channel=0 note=76 velocity=80 time=0
note_on channel=0 note=64 velocity=0 time=0.11145833333333333
note_on channel=0 note=76 velocity=0 time=0.00625
note_on channel=0 note=75 velocity=80 time=0.007291666666666667
note_on channel=0 note=73 velocity=80 time=0
note_on channel=0 note=63 velocity=80 time=0
note_on channel=0 note=64 velocity=80 time=0
note_on channel=0 note=68 velocity=80 time=0
note_on channel=0 note=75 velocity=0 time=0.11770833333333333
note_on channel=0 note=73 velocity=0 time=0
note_on channel=0 note=63 velocity=0 time=0
note_on channel=0 note=76 velocity=80 time=0.007291666666666667
note_on channel=0 note=76 velocity=0 time=0
note_on channel=0 note=76 velocity=80 time=0
note_on channel=0 note=64 velocity=0 time=0
note_on channel=0 note=64 velocity=80 time=0
note_on channel=0 note=76 velocity=0 time=0.11770833333333333
note_on channel=0 note=78 velocity=80 time=0.007291666666666667
note_on channel=0 note=71 velocity=80 time=0
note_on channel=0 note=66 velocity=80 time=0
note_on channel=0 note=71 velocity=0 time=0.11770833333333333
note_on channel=0 note=75 velocity=80 time=0.007291666666666667
note_on channel=0 note=64 velocity=0 time=0.09895833333333333
note_on channel=0 note=68 velocity=0 time=0
note_on channel=0 note=78 velocity=0 time=0.0125
note_on channel=0 note=66 velocity=0 time=0
note_on channel=0 note=75 velocity=0 time=0.00625
note_on channel=0 note=75 velocity=80 time=0.007291666666666667
note_on channel=0 note=71 velocity=80 time=0
note_on channel=0 note=63 velocity=80 time=0
note_on channel=0 note=66 velocity=80 time=0
note_on channel=0 note=75 velocity=0 time=0.23645833333333333
note_on channel=0 note=71 velocity=0 time=0
note_on channel=0 note=63 velocity=0 time=0
note_on channel=0 note=66 velocity=0 time=0
note_on channel=0 note=71 velocity=80 time=0.013541666666666667
note_on channel=0 note=59 velocity=80 time=0
note_on channel=0 note=75 velocity=80 time=0.125
note_on channel=0 note=75 velocity=0 time=0.11770833333333333
note_on channel=0 note=71 velocity=0 time=0.007291666666666667
note_on channel=0 note=71 velocity=80 time=0
note_on channel=0 note=63 velocity=80 time=0
note_on channel=0 note=66 velocity=80 time=0
note_on channel=0 note=75 velocity=80 time=0.125
note_on channel=0 note=71 velocity=0 time=0.09895833333333333
note_on channel=0 note=59 velocity=0 time=0
note_on channel=0 note=63 velocity=0 time=0.0125
note_on channel=0 note=66 velocity=0 time=0
note_on channel=0 note=75 velocity=0 time=0.00625
note_on channel=0 note=76 velocity=80 time=0.007291666666666667
note_on channel=0 note=71 velocity=80 time=0
note_on channel=0 note=64 velocity=80 time=0
note_on channel=0 note=71 velocity=0 time=0.11770833333333333
note_on channel=0 note=73 velocity=80 time=0.007291666666666667
note_on channel=0 note=73 velocity=0 time=0.11770833333333333
note_on channel=0 note=71 velocity=80 time=0.007291666666666667
note_on channel=0 note=64 velocity=0 time=0
note_on channel=0 note=64 velocity=80 time=0
note_on channel=0 note=68 velocity=80 time=0
note_on channel=0 note=71 velocity=0 time=0.11770833333333333
note_on channel=0 note=73 velocity=80 time=0.007291666666666667
note_on channel=0 note=73 velocity=0 time=0.11770833333333333
note_on channel=0 note=68 velocity=80 time=0.007291666666666667
note_on channel=0 note=68 velocity=0 time=0
note_on channel=0 note=71 velocity=80 time=0.125
note_on channel=0 note=76 velocity=0 time=0.08645833333333333
note_on channel=0 note=68 velocity=0 time=0.0125
note_on channel=0 note=64 velocity=0 time=0
note_on channel=0 note=71 velocity=0 time=0.01875
note_on channel=0 note=75 velocity=80 time=0.007291666666666667
note_on channel=0 note=68 velocity=80 time=0
note_on channel=0 note=63 velocity=80 time=0
note_on channel=0 note=75 velocity=0 time=0.23645833333333333
note_on channel=0 note=68 velocity=0 time=0
note_on channel=0 note=63 velocity=0 time=0
note_on channel=0 note=73 velocity=80 time=0.013541666666666667
note_on channel=0 note=61 velocity=80 time=0
note_on channel=0 note=71 velocity=80 time=0.125
note_on channel=0 note=73 velocity=0 time=0.11145833333333333
note_on channel=0 note=61 velocity=0 time=0
note_on channel=0 note=71 velocity=0 time=0.00625
note_on channel=0 note=71 velocity=80 time=0.007291666666666667
note_on channel=0 note=68 velocity=80 time=0
note_on channel=0 note=59 velocity=80 time=0
note_on channel=0 note=64 velocity=80 time=0
note_on channel=0 note=68 velocity=0 time=0.11770833333333333
note_on channel=0 note=71 velocity=0 time=0.007291666666666667
note_on channel=0 note=71 velocity=80 time=0
note_on channel=0 note=59 velocity=0 time=0.11145833333333333
note_on channel=0 note=64 velocity=0 time=0
note_on channel=0 note=71 velocity=0 time=0.00625
note_on channel=0 note=75 velocity=80 time=0.007291666666666667
note_on channel=0 note=68 velocity=80 time=0
note_on channel=0 note=63 velocity=80 time=0
note_on channel=0 note=68 velocity=0 time=0.11770833333333333
note_on channel=0 note=71 velocity=80 time=0.007291666666666667
note_on channel=0 note=75 velocity=0 time=0.11145833333333333
note_on channel=0 note=63 velocity=0 time=0
note_on channel=0 note=71 velocity=0 time=0.00625
note_on channel=0 note=71 velocity=80 time=0.007291666666666667
note_on channel=0 note=68 velocity=80 time=0
note_on channel=0 note=59 velocity=80 time=0
note_on channel=0 note=63 velocity=80 time=0
note_on channel=0 note=71 velocity=0 time=0.23645833333333333
note_on channel=0 note=68 velocity=0 time=0
note_on channel=0 note=59 velocity=0 time=0
note_on channel=0 note=63 velocity=0 time=0
note_on channel=0 note=68 velocity=80 time=0.013541666666666667
note_on channel=0 note=56 velocity=80 time=0
note_on channel=0 note=71 velocity=80 time=0.125
note_on channel=0 note=71 velocity=0 time=0.11770833333333333
note_on channel=0 note=63 velocity=80 time=0.007291666666666667
note_on channel=0 note=63 velocity=0 time=0.11770833333333333
note_on channel=0 note=71 velocity=80 time=0.007291666666666667
note_on channel=0 note=71 velocity=0 time=0.11770833333333333
note_on channel=0 note=68 velocity=0 time=0.007291666666666667
note_on channel=0 note=68 velocity=80 time=0
note_on channel=0 note=71 velocity=80 time=0.125
note_on channel=0 note=71 velocity=0 time=0.11770833333333333
note_on channel=0 note=63 velocity=80 time=0.007291666666666667
note_on channel=0 note=63 velocity=0 time=0.11770833333333333
note_on channel=0 note=59 velocity=80 time=0.007291666666666667
note_on channel=0 note=71 velocity=80 time=0
note_on channel=0 note=68 velocity=0 time=0.07395833333333333
note_on channel=0 note=56 velocity=0 time=0
note_on channel=0 note=59 velocity=0 time=0.04375
note_on channel=0 note=71 velocity=0 time=0
note_on channel=0 note=69 velocity=80 time=0.007291666666666667
note_on channel=0 note=57 velocity=80 time=0
note_on channel=0 note=61 velocity=80 time=0
note_on channel=0 note=66 velocity=80 time=0
note_on channel=0 note=42 velocity=80 time=0
note_on channel=0 note=49 velocity=80 time=0
note_on channel=0 note=54 velocity=80 time=0
note_on channel=0 note=57 velocity=0 time=0.11770833333333333
note_on channel=0 note=61 velocity=0 time=0
note_on channel=0 note=66 velocity=0 time=0
note_on channel=0 note=57 velocity=80 time=0.007291666666666667
note_on channel=0 note=69 velocity=0 time=0
note_on channel=0 note=69 velocity=80 time=0
note_on channel=0 note=49 velocity=0 time=0.11145833333333333
note_on channel=0 note=54 velocity=0 time=0
note_on channel=0 note=57 velocity=0 time=0.00625
note_on channel=0 note=69 velocity=0 time=0
note_on channel=0 note=68 velocity=80 time=0.007291666666666667
note_on channel=0 note=56 velocity=80 time=0
note_on channel=0 note=61 velocity=80 time=0
note_on channel=0 note=49 velocity=80 time=0
note_on channel=0 note=68 velocity=0 time=0.11770833333333333
note_on channel=0 note=56 velocity=0 time=0
note_on channel=0 note=61 velocity=0 time=0
note_on channel=0 note=49 velocity=0 time=0
note_on channel=0 note=69 velocity=80 time=0.007291666666666667
note_on channel=0 note=57 velocity=80 time=0
note_on channel=0 note=66 velocity=80 time=0
note_on channel=0 note=54 velocity=80 time=0
note_on channel=0 note=42 velocity=0 time=0.09895833333333333
note_on channel=0 note=69 velocity=0 time=0.01875
note_on channel=0 note=57 velocity=0 time=0
note_on channel=0 note=66 velocity=0 time=0
note_on channel=0 note=54 velocity=0 time=0
note_on channel=0 note=71 velocity=80 time=0.007291666666666667
note_on channel=0 note=59 velocity=80 time=0
note_on channel=0 note=64 velocity=80 time=0
note_on channel=0 note=40 velocity=80 time=0
note_on channel=0 note=47 velocity=80 time=0
note_on channel=0 note=52 velocity=80 time=0
note_on channel=0 note=59 velocity=0 time=0.11770833333333333
note_on channel=0 note=64 velocity=0 time=0
note_on channel=0 note=47 velocity=0 time=0
note_on channel=0 note=52 velocity=0 time=0
note_on channel=0 note=68 velocity=80 time=0.007291666666666667
note_on channel=0 note=56 velocity=80 time=0
note_on channel=0 note=68 velocity=0 time=0.11770833333333333
note_on channel=0 note=56 velocity=0 time=0
note_on channel=0 note=59 velocity=80 time=0.007291666666666667
note_on channel=0 note=47 velocity=80 time=0
note_on channel=0 note=59 velocity=0 time=0.11770833333333333
note_on channel=0 note=47 velocity=0 time=0
note_on channel=0 note=68 velocity=80 time=0.007291666666666667
note_on channel=0 note=56 velocity=80 time=0
note_on channel=0 note=68 velocity=0 time=0.11770833333333333
note_on channel=0 note=56 velocity=0 time=0
note_on channel=0 note=64 velocity=80 time=0.007291666666666667
note_on channel=0 note=52 velocity=80 time=0
note_on channel=0 note=71 velocity=0 time=0.21145833333333333
note_on channel=0 note=64 velocity=0 time=0.025
note_on channel=0 note=52 velocity=0 time=0
note_on channel=0 note=69 velocity=80 time=0.013541666666666667
note_on channel=0 note=57 velocity=80 time=0
note_on channel=0 note=69 velocity=0 time=0.11770833333333333
note_on channel=0 note=57 velocity=0 time=0
note_on channel=0 note=71 velocity=80 time=0.007291666666666667
note_on channel=0 note=59 velocity=80 time=0
note_on channel=0 note=66 velocity=80 time=0
note_on channel=0 note=54 velocity=80 time=0
note_on channel=0 note=40 velocity=0 time=0.07395833333333333
note_on channel=0 note=71 velocity=0 time=0.04375
note_on channel=0 note=59 velocity=0 time=0
note_on channel=0 note=66 velocity=0 time=0
note_on channel=0 note=54 velocity=0 time=0
note_on channel=0 note=73 velocity=80 time=0.007291666666666667
note_on channel=0 note=61 velocity=80 time=0
note_on channel=0 note=38 velocity=80 time=0
note_on channel=0 note=45 velocity=80 time=0
note_on channel=0 note=50 velocity=80 time=0
note_on channel=0 note=61 velocity=0 time=0.11770833333333333
note_on channel=0 note=45 velocity=0 time=0
note_on channel=0 note=50 velocity=0 time=0
note_on channel=0 note=66 velocity=80 time=0.007291666666666667
note_on channel=0 note=54 velocity=80 time=0
note_on channel=0 note=66 velocity=0 time=0.11770833333333333
note_on channel=0 note=54 velocity=0 time=0
note_on channel=0 note=57 velocity=80 time=0.007291666666666667
note_on channel=0 note=45 velocity=80 time=0
note_on channel=0 note=57 velocity=0 time=0.11770833333333333
note_on channel=0 note=45 velocity=0 time=0
note_on channel=0 note=66 velocity=80 time=0.007291666666666667
note_on channel=0 note=54 velocity=80 time=0
note_on channel=0 note=66 velocity=0 time=0.11770833333333333
note_on channel=0 note=54 velocity=0 time=0
note_on channel=0 note=62 velocity=80 time=0.007291666666666667
note_on channel=0 note=50 velocity=80 time=0
note_on channel=0 note=73 velocity=0 time=0.21145833333333333
note_on channel=0 note=62 velocity=0 time=0.025
note_on channel=0 note=71 velocity=80 time=0.013541666666666667
note_on channel=0 note=59 velocity=80 time=0
note_on channel=0 note=50 velocity=0 time=0.10520833333333333
note_on channel=0 note=71 velocity=0 time=0.0125
note_on channel=0 note=59 velocity=0 time=0
note_on channel=0 note=72 velocity=80 time=0.007291666666666667
note_on channel=0 note=60 velocity=80 time=0
note_on channel=0 note=52 velocity=80 time=0
note_on channel=0 note=64 velocity=80 time=0
note_on channel=0 note=38 velocity=0 time=0.07395833333333333
note_on channel=0 note=72 velocity=0 time=0.04375
note_on channel=0 note=60 velocity=0 time=0
note_on channel=0 note=52 velocity=0 time=0
note_on channel=0 note=64 velocity=0 time=0
note_on channel=0 note=73 velocity=80 time=0.007291666666666667
note_on channel=0 note=61 velocity=80 time=0
note_on channel=0 note=37 velocity=80 time=0
note_on channel=0 note=44 velocity=80 time=0
note_on channel=0 note=49 velocity=80 time=0
note_on channel=0 note=61 velocity=0 time=0.11770833333333333
note_on channel=0 note=44 velocity=0 time=0
note_on channel=0 note=49 velocity=0 time=0
note_on channel=0 note=64 velocity=80 time=0.007291666666666667
note_on channel=0 note=52 velocity=80 time=0
note_on channel=0 note=64 velocity=0 time=0.11770833333333333
note_on channel=0 note=52 velocity=0 time=0
note_on channel=0 note=56 velocity=80 time=0.007291666666666667
note_on channel=0 note=44 velocity=80 time=0
note_on channel=0 note=56 velocity=0 time=0.11770833333333333
note_on channel=0 note=44 velocity=0 time=0
note_on channel=0 note=64 velocity=80 time=0.007291666666666667
note_on channel=0 note=52 velocity=80 time=0
note_on channel=0 note=64 velocity=0 time=0.11770833333333333
note_on channel=0 note=52 velocity=0 time=0
note_on channel=0 note=61 velocity=80 time=0.007291666666666667
note_on channel=0 note=49 velocity=80 time=0
note_on channel=0 note=61 velocity=0 time=0.35520833333333335
note_on channel=0 note=49 velocity=0 time=0
note_on channel=0 note=64 velocity=80 time=0.019791666666666666
note_on channel=0 note=52 velocity=80 time=0
note_on channel=0 note=64 velocity=0 time=0.11770833333333333
note_on channel=0 note=52 velocity=0 time=0
note_on channel=0 note=68 velocity=80 time=0.007291666666666667
note_on channel=0 note=56 velocity=80 time=0
note_on channel=0 note=68 velocity=0 time=0.11770833333333333
note_on channel=0 note=61 velocity=80 time=0.007291666666666667
note_on channel=0 note=61 velocity=0 time=0.11770833333333333
note_on channel=0 note=64 velocity=80 time=0.007291666666666667
note_on channel=0 note=64 velocity=0 time=0.11770833333333333
note_on channel=0 note=68 velocity=80 time=0.007291666666666667
note_on channel=0 note=73 velocity=0 time=0.04895833333333333
note_on channel=0 note=37 velocity=0 time=0
note_on channel=0 note=56 velocity=0 time=0.05
note_on channel=0 note=68 velocity=0 time=0.01875
note_on channel=0 note=76 velocity=80 time=0.007291666666666667
note_on channel=0 note=73 velocity=80 time=0
note_on channel=0 note=64 velocity=80 time=0
note_on channel=0 note=73 velocity=0 time=0.11770833333333333
note_on channel=0 note=64 velocity=0 time=0.007291666666666667
note_on channel=0 note=64 velocity=80 time=0
note_on channel=0 note=76 velocity=0 time=0.11145833333333333
note_on channel=0 note=64 velocity=0 time=0.00625
note_on channel=0 note=80 velocity=80 time=0.007291666666666667
note_on channel=0 note=68 velocity=80 time=0
note_on channel=0 note=68 velocity=0 time=0
note_on channel=0 note=68 velocity=80 time=0
note_on channel=0 note=73 velocity=80 time=0.125
note_on channel=0 note=80 velocity=0 time=0.11145833333333333
note_on channel=0 note=68 velocity=0 time=0
note_on channel=0 note=73 velocity=0 time=0.00625
note_on channel=0 note=85 velocity=80 time=0.007291666666666667
note_on channel=0 note=76 velocity=80 time=0
note_on channel=0 note=80 velocity=80 time=0
note_on channel=0 note=73 velocity=80 time=0
note_on channel=0 note=76 velocity=0 time=0.11770833333333333
note_on channel=0 note=80 velocity=0 time=0
note_on channel=0 note=80 velocity=80 time=0.007291666666666667
note_on channel=0 note=80 velocity=0 time=0.11770833333333333
note_on channel=0 note=76 velocity=80 time=0.007291666666666667
note_on channel=0 note=68 velocity=80 time=0
note_on channel=0 note=73 velocity=0 time=0
note_on channel=0 note=73 velocity=80 time=0
note_on channel=0 note=76 velocity=0 time=0.11770833333333333
note_on channel=0 note=80 velocity=80 time=0.007291666666666667
note_on channel=0 note=80 velocity=0 time=0.11770833333333333
note_on channel=0 note=76 velocity=80 time=0.007291666666666667
note_on channel=0 note=85 velocity=0 time=0.21145833333333333
note_on channel=0 note=68 velocity=0 time=0.0125
note_on channel=0 note=73 velocity=0 time=0
note_on channel=0 note=76 velocity=0 time=0.0125
note_on channel=0 note=83 velocity=80 time=0.013541666666666667
note_on channel=0 note=76 velocity=80 time=0
note_on channel=0 note=80 velocity=80 time=0
note_on channel=0 note=71 velocity=80 time=0
note_on channel=0 note=83 velocity=0 time=0.23645833333333333
note_on channel=0 note=76 velocity=0 time=0
note_on channel=0 note=80 velocity=0 time=0
note_on channel=0 note=71 velocity=0 time=0
note_on channel=0 note=81 velocity=80 time=0.013541666666666667
note_on channel=0 note=78 velocity=80 time=0
note_on channel=0 note=69 velocity=80 time=0
note_on channel=0 note=73 velocity=80 time=0
note_on channel=0 note=78 velocity=0 time=0.11770833333333333
note_on channel=0 note=78 velocity=80 time=0.007291666666666667
note_on channel=0 note=81 velocity=0 time=0.11145833333333333
note_on channel=0 note=69 velocity=0 time=0
note_on channel=0 note=73 velocity=0 time=0
note_on channel=0 note=78 velocity=0 time=0.00625
note_on channel=0 note=80 velocity=80 time=0.007291666666666667
note_on channel=0 note=76 velocity=80 time=0
note_on channel=0 note=68 velocity=80 time=0
note_on channel=0 note=69 velocity=80 time=0
note_on channel=0 note=73 velocity=80 time=0
note_on channel=0 note=80 velocity=0 time=0.11770833333333333
note_on channel=0 note=76 velocity=0 time=0
note_on channel=0 note=68 velocity=0 time=0
note_on channel=0 note=81 velocity=80 time=0.007291666666666667
note_on channel=0 note=78 velocity=80 time=0
note_on channel=0 note=69 velocity=0 time=0
note_on channel=0 note=69 velocity=80 time=0
note_on channel=0 note=73 velocity=0 time=0.11145833333333333
note_on channel=0 note=81 velocity=0 time=0.00625
note_on channel=0 note=78 velocity=0 time=0
note_on channel=0 note=69 velocity=0 time=0
note_on channel=0 note=83 velocity=80 time=0.007291666666666667
note_on channel=0 note=76 velocity=80 time=0
note_on channel=0 note=80 velocity=80 time=0
note_on channel=0 note=71 velocity=80 time=0
note_on channel=0 note=76 velocity=0 time=0.11770833333333333
note_on channel=0 note=80 velocity=0 time=0
note_on channel=0 note=80 velocity=80 time=0.007291666666666667
note_on channel=0 note=83 velocity=0 time=0.11145833333333333
note_on channel=0 note=71 velocity=0 time=0
note_on channel=0 note=80 velocity=0 time=0.00625
note_on channel=0 note=80 velocity=80 time=0.007291666666666667
note_on channel=0 note=76 velocity=80 time=0
note_on channel=0 note=68 velocity=80 time=0
note_on channel=0 note=71 velocity=80 time=0
note_on channel=0 note=80 velocity=0 time=0.23645833333333333
note_on channel=0 note=76 velocity=0 time=0
note_on channel=0 note=68 velocity=0 time=0
note_on channel=0 note=71 velocity=0 time=0
note_on channel=0 note=76 velocity=80 time=0.013541666666666667
note_on channel=0 note=64 velocity=80 time=0
note_on channel=0 note=68 velocity=80 time=0
note_on channel=0 note=71 velocity=80 time=0
note_on channel=0 note=80 velocity=80 time=0.125
note_on channel=0 note=80 velocity=0 time=0.11770833333333333
note_on channel=0 note=71 velocity=80 time=0.007291666666666667
note_on channel=0 note=71 velocity=0 time=0
note_on channel=0 note=75 velocity=80 time=0.125
note_on channel=0 note=76 velocity=0 time=0.09895833333333333
note_on channel=0 note=71 velocity=0 time=0
note_on channel=0 note=64 velocity=0 time=0
note_on channel=0 note=68 velocity=0 time=0
note_on channel=0 note=75 velocity=0 time=0.01875
note_on channel=0 note=81 velocity=80 time=0.007291666666666667
note_on channel=0 note=76 velocity=80 time=0
note_on channel=0 note=69 velocity=80 time=0
note_on channel=0 note=71 velocity=80 time=0
note_on channel=0 note=73 velocity=80 time=0
note_on channel=0 note=76 velocity=0 time=0.11770833333333333
note_on channel=0 note=76 velocity=80 time=0.007291666666666667
note_on channel=0 note=71 velocity=0 time=0.11145833333333333
note_on channel=0 note=73 velocity=0 time=0
note_on channel=0 note=76 velocity=0 time=0.00625
note_on channel=0 note=64 velocity=80 time=0.007291666666666667
note_on channel=0 note=69 velocity=0 time=0
note_on channel=0 note=69 velocity=80 time=0
note_on channel=0 note=73 velocity=80 time=0
note_on channel=0 note=76 velocity=80 time=0.375
note_on channel=0 note=81 velocity=0 time=0.08645833333333333
note_on channel=0 note=64 velocity=0 time=0.0125
note_on channel=0 note=69 velocity=0 time=0
note_on channel=0 note=73 velocity=0 time=0
note_on channel=0 note=80 velocity=80 time=0.026041666666666668
note_on channel=0 note=68 velocity=80 time=0
note_on channel=0 note=73 velocity=80 time=0
note_on channel=0 note=76 velocity=0 time=0.11145833333333333
note_on channel=0 note=76 velocity=80 time=0.013541666666666667
note_on channel=0 note=80 velocity=0 time=0.11145833333333333
note_on channel=0 note=68 velocity=0 time=0
note_on channel=0 note=73 velocity=0 time=0
note_on channel=0 note=78 velocity=80 time=0.013541666666666667
note_on channel=0 note=66 velocity=80 time=0
note_on channel=0 note=69 velocity=80 time=0
note_on channel=0 note=76 velocity=0 time=0.11145833333333333
note_on channel=0 note=76 velocity=80 time=0.013541666666666667
note_on channel=0 note=78 velocity=0 time=0.11145833333333333
note_on channel=0 note=66 velocity=0 time=0
note_on channel=0 note=69 velocity=0 time=0
note_on channel=0 note=76 velocity=0 time=0.00625
note_on channel=0 note=76 velocity=80 time=0.007291666666666667
note_on channel=0 note=73 velocity=80 time=0
note_on channel=0 note=64 velocity=80 time=0
note_on channel=0 note=66 velocity=80 time=0
note_on channel=0 note=69 velocity=80 time=0
note_on channel=0 note=73 velocity=0 time=0.11770833333333333
note_on channel=0 note=76 velocity=0 time=0.007291666666666667
note_on channel=0 note=76 velocity=80 time=0
note_on channel=0 note=64 velocity=0 time=0.11145833333333333
note_on channel=0 note=66 velocity=0 time=0
note_on channel=0 note=69 velocity=0 time=0
note_on channel=0 note=76 velocity=0 time=0.00625
note_on channel=0 note=80 velocity=80 time=0.007291666666666667
note_on channel=0 note=68 velocity=80 time=0
note_on channel=0 note=73 velocity=80 time=0
note_on channel=0 note=76 velocity=80 time=0.125
note_on channel=0 note=80 velocity=0 time=0.11145833333333333
note_on channel=0 note=68 velocity=0 time=0
note_on channel=0 note=73 velocity=0 time=0
note_on channel=0 note=76 velocity=0 time=0.00625
note_on channel=0 note=76 velocity=80 time=0.007291666666666667
note_on channel=0 note=73 velocity=80 time=0
note_on channel=0 note=64 velocity=80 time=0
note_on channel=0 note=68 velocity=80 time=0
note_on channel=0 note=73 velocity=0 time=0.11770833333333333
note_on channel=0 note=76 velocity=0 time=0.007291666666666667
note_on channel=0 note=76 velocity=80 time=0
note_on channel=0 note=64 velocity=0 time=0.11145833333333333
note_on channel=0 note=68 velocity=0 time=0
note_on channel=0 note=76 velocity=0 time=0.00625
note_on channel=0 note=73 velocity=80 time=0.007291666666666667
note_on channel=0 note=68 velocity=80 time=0
note_on channel=0 note=61 velocity=80 time=0
note_on channel=0 note=64 velocity=80 time=0
note_on channel=0 note=68 velocity=0 time=0.35520833333333335
note_on channel=0 note=76 velocity=80 time=0.019791666666666666
note_on channel=0 note=64 velocity=0 time=0.09895833333333333
note_on channel=0 note=76 velocity=0 time=0.01875
note_on channel=0 note=73 velocity=0 time=0.007291666666666667
note_on channel=0 note=73 velocity=80 time=0
note_on channel=0 note=76 velocity=80 time=0.125
note_on channel=0 note=76 velocity=0 time=0.11770833333333333
note_on channel=0 note=68 velocity=80 time=0.007291666666666667
note_on channel=0 note=56 velocity=80 time=0
note_on channel=0 note=68 velocity=0 time=0.11770833333333333
note_on channel=0 note=56 velocity=0 time=0
note_on channel=0 note=73 velocity=0 time=0.007291666666666667
note_on channel=0 note=73 velocity=80 time=0
note_on channel=0 note=61 velocity=0 time=0
note_on channel=0 note=61 velocity=80 time=0
note_on channel=0 note=73 velocity=0 time=0.11770833333333333
note_on channel=0 note=61 velocity=0 time=0
note_on channel=0 note=74 velocity=80 time=0.007291666666666667
note_on channel=0 note=62 velocity=80 time=0
note_on channel=0 note=66 velocity=80 time=0
note_on channel=0 note=71 velocity=80 time=0
note_on channel=0 note=54 velocity=80 time=0
note_on channel=0 note=59 velocity=80 time=0
note_on channel=0 note=47 velocity=80 time=0
note_on channel=0 note=62 velocity=0 time=0.11770833333333333
note_on channel=0 note=66 velocity=0 time=0
note_on channel=0 note=71 velocity=0 time=0
note_on channel=0 note=62 velocity=80 time=0.007291666666666667
note_on channel=0 note=74 velocity=0 time=0
note_on channel=0 note=74 velocity=80 time=0
note_on channel=0 note=54 velocity=0 time=0.11145833333333333
note_on channel=0 note=59 velocity=0 time=0
note_on channel=0 note=62 velocity=0 time=0.00625
note_on channel=0 note=74 velocity=0 time=0
note_on channel=0 note=73 velocity=80 time=0.007291666666666667
note_on channel=0 note=61 velocity=80 time=0
note_on channel=0 note=66 velocity=80 time=0
note_on channel=0 note=54 velocity=80 time=0
note_on channel=0 note=73 velocity=0 time=0.11770833333333333
note_on channel=0 note=61 velocity=0 time=0
note_on channel=0 note=66 velocity=0 time=0
note_on channel=0 note=54 velocity=0 time=0
note_on channel=0 note=74 velocity=80 time=0.007291666666666667
note_on channel=0 note=62 velocity=80 time=0
note_on channel=0 note=71 velocity=80 time=0
note_on channel=0 note=59 velocity=80 time=0
note_on channel=0 note=47 velocity=0 time=0.09895833333333333
note_on channel=0 note=74 velocity=0 time=0.01875
note_on channel=0 note=62 velocity=0 time=0
note_on channel=0 note=71 velocity=0 time=0
note_on channel=0 note=59 velocity=0 time=0
note_on channel=0 note=64 velocity=80 time=0.007291666666666667
note_on channel=0 note=76 velocity=80 time=0
note_on channel=0 note=69 velocity=80 time=0
note_on channel=0 note=52 velocity=80 time=0
note_on channel=0 note=57 velocity=80 time=0
note_on channel=0 note=45 velocity=80 time=0
note_on channel=0 note=69 velocity=0 time=0.11770833333333333
note_on channel=0 note=61 velocity=80 time=0.007291666666666667
note_on channel=0 note=73 velocity=80 time=0
note_on channel=0 note=52 velocity=0 time=0.11145833333333333
note_on channel=0 note=57 velocity=0 time=0
note_on channel=0 note=61 velocity=0 time=0.00625
note_on channel=0 note=73 velocity=0 time=0
note_on channel=0 note=64 velocity=0 time=0.007291666666666667
note_on channel=0 note=64 velocity=80 time=0
note_on channel=0 note=52 velocity=80 time=0
note_on channel=0 note=61 velocity=80 time=0.125
note_on channel=0 note=73 velocity=80 time=0
note_on channel=0 note=52 velocity=0 time=0.11145833333333333
note_on channel=0 note=61 velocity=0 time=0.00625
note_on channel=0 note=73 velocity=0 time=0
note_on channel=0 note=69 velocity=80 time=0.007291666666666667
note_on channel=0 note=57 velocity=80 time=0
note_on channel=0 note=64 velocity=0 time=0.21145833333333333
note_on channel=0 note=76 velocity=0 time=0
note_on channel=0 note=69 velocity=0 time=0.025
note_on channel=0 note=74 velocity=80 time=0.013541666666666667
note_on channel=0 note=62 velocity=80 time=0
note_on channel=0 note=57 velocity=0 time=0.10520833333333333
note_on channel=0 note=74 velocity=0 time=0.0125
note_on channel=0 note=62 velocity=0 time=0
note_on channel=0 note=76 velocity=80 time=0.007291666666666667
note_on channel=0 note=71 velocity=80 time=0
note_on channel=0 note=59 velocity=80 time=0
note_on channel=0 note=64 velocity=80 time=0
note_on channel=0 note=45 velocity=0 time=0.07395833333333333
note_on channel=0 note=76 velocity=0 time=0.04375
note_on channel=0 note=71 velocity=0 time=0
note_on channel=0 note=59 velocity=0 time=0
note_on channel=0 note=64 velocity=0 time=0
note_on channel=0 note=66 velocity=80 time=0.007291666666666667
note_on channel=0 note=78 velocity=80 time=0
note_on channel=0 note=67 velocity=80 time=0
note_on channel=0 note=50 velocity=80 time=0
note_on channel=0 note=55 velocity=80 time=0
note_on channel=0 note=43 velocity=80 time=0
note_on channel=0 note=67 velocity=0 time=0.11770833333333333
note_on channel=0 note=50 velocity=0 time=0
note_on channel=0 note=55 velocity=0 time=0
note_on channel=0 note=71 velocity=80 time=0.007291666666666667
note_on channel=0 note=59 velocity=80 time=0
note_on channel=0 note=71 velocity=0 time=0.11770833333333333
note_on channel=0 note=59 velocity=0 time=0
note_on channel=0 note=62 velocity=80 time=0.007291666666666667
note_on channel=0 note=50 velocity=80 time=0
note_on channel=0 note=62 velocity=0 time=0.11770833333333333
note_on channel=0 note=50 velocity=0 time=0
note_on channel=0 note=71 velocity=80 time=0.007291666666666667
note_on channel=0 note=59 velocity=80 time=0
note_on channel=0 note=71 velocity=0 time=0.11770833333333333
note_on channel=0 note=59 velocity=0 time=0
note_on channel=0 note=67 velocity=80 time=0.007291666666666667
note_on channel=0 note=55 velocity=80 time=0
note_on channel=0 note=66 velocity=0 time=0.21145833333333333
note_on channel=0 note=78 velocity=0 time=0
note_on channel=0 note=67 velocity=0 time=0.025
note_on channel=0 note=76 velocity=80 time=0.013541666666666667
note_on channel=0 note=64 velocity=80 time=0
note_on channel=0 note=55 velocity=0 time=0.10520833333333333
note_on channel=0 note=76 velocity=0 time=0.0125
note_on channel=0 note=64 velocity=0 time=0
note_on channel=0 note=77 velocity=80 time=0.007291666666666667
note_on channel=0 note=65 velocity=80 time=0
note_on channel=0 note=57 velocity=80 time=0
note_on channel=0 note=69 velocity=80 time=0
note_on channel=0 note=43 velocity=0 time=0.07395833333333333
note_on channel=0 note=77 velocity=0 time=0.04375
note_on channel=0 note=65 velocity=0 time=0
note_on channel=0 note=57 velocity=0 time=0
note_on channel=0 note=69 velocity=0 time=0
note_on channel=0 note=66 velocity=80 time=0.007291666666666667
note_on channel=0 note=78 velocity=80 time=0
note_on channel=0 note=49 velocity=80 time=0
note_on channel=0 note=54 velocity=80 time=0
note_on channel=0 note=42 velocity=80 time=0
note_on channel=0 note=49 velocity=0 time=0.11770833333333333
note_on channel=0 note=54 velocity=0 time=0
note_on channel=0 note=69 velocity=80 time=0.007291666666666667
note_on channel=0 note=57 velocity=80 time=0
note_on channel=0 note=69 velocity=0 time=0.11770833333333333
note_on channel=0 note=57 velocity=0 time=0
note_on channel=0 note=61 velocity=80 time=0.007291666666666667
note_on channel=0 note=49 velocity=80 time=0
note_on channel=0 note=61 velocity=0 time=0.11770833333333333
note_on channel=0 note=49 velocity=0 time=0
note_on channel=0 note=69 velocity=80 time=0.007291666666666667
note_on channel=0 note=57 velocity=80 time=0
note_on channel=0 note=69 velocity=0 time=0.11770833333333333
note_on channel=0 note=57 velocity=0 time=0
note_on channel=0 note=66 velocity=0 time=0.007291666666666667
note_on channel=0 note=66 velocity=80 time=0
note_on channel=0 note=54 velocity=80 time=0
note_on channel=0 note=54 velocity=0 time=0.35520833333333335
note_on channel=0 note=69 velocity=80 time=0.019791666666666666
note_on channel=0 note=57 velocity=80 time=0
note_on channel=0 note=69 velocity=0 time=0.11770833333333333
note_on channel=0 note=57 velocity=0 time=0
note_on channel=0 note=73 velocity=80 time=0.007291666666666667
note_on channel=0 note=61 velocity=80 time=0
note_on channel=0 note=73 velocity=0 time=0.11770833333333333
note_on channel=0 note=61 velocity=0 time=0
note_on channel=0 note=66 velocity=0 time=0.007291666666666667
note_on channel=0 note=66 velocity=80 time=0
note_on channel=0 note=54 velocity=80 time=0
note_on channel=0 note=54 velocity=0 time=0.11770833333333333
note_on channel=0 note=69 velocity=80 time=0.007291666666666667
note_on channel=0 note=57 velocity=80 time=0
note_on channel=0 note=69 velocity=0 time=0.11770833333333333
note_on channel=0 note=57 velocity=0 time=0
note_on channel=0 note=73 velocity=80 time=0.007291666666666667
note_on channel=0 note=61 velocity=80 time=0
note_on channel=0 note=66 velocity=0 time=0.04895833333333333
note_on channel=0 note=78 velocity=0 time=0
note_on channel=0 note=42 velocity=0 time=0
note_on channel=0 note=73 velocity=0 time=0.06875
note_on channel=0 note=61 velocity=0 time=0
note_on channel=0 note=85 velocity=80 time=0.007291666666666667
note_on channel=0 note=73 velocity=80 time=0
note_on channel=0 note=78 velocity=80 time=0
note_on channel=0 note=81 velocity=80 time=0
note_on channel=0 note=61 velocity=80 time=0
note_on channel=0 note=66 velocity=80 time=0
note_on channel=0 note=69 velocity=80 time=0
note_on channel=0 note=73 velocity=0 time=0.125
note_on channel=0 note=73 velocity=80 time=0
note_on channel=0 note=61 velocity=0 time=0
note_on channel=0 note=61 velocity=80 time=0
note_on channel=0 note=78 velocity=0 time=0.125
note_on channel=0 note=78 velocity=80 time=0
note_on channel=0 note=66 velocity=0 time=0
note_on channel=0 note=66 velocity=80 time=0
note_on channel=0 note=81 velocity=0 time=0.125
note_on channel=0 note=81 velocity=80 time=0
note_on channel=0 note=69 velocity=0 time=0
note_on channel=0 note=69 velocity=80 time=0
note_on channel=0 note=85 velocity=0 time=0.09895833333333333
note_on channel=0 note=73 velocity=0 time=0
note_on channel=0 note=78 velocity=0 time=0
note_on channel=0 note=61 velocity=0 time=0
note_on channel=0 note=66 velocity=0 time=0
note_on channel=0 note=81 velocity=0 time=0.01875
note_on channel=0 note=69 velocity=0 time=0
note_on channel=0 note=88 velocity=80 time=0.007291666666666667
note_on channel=0 note=76 velocity=80 time=0
note_on channel=0 note=79 velocity=80 time=0
note_on channel=0 note=83 velocity=80 time=0
note_on channel=0 note=64 velocity=80 time=0
note_on channel=0 note=67 velocity=80 time=0
note_on channel=0 note=71 velocity=80 time=0
note_on channel=0 note=67 velocity=0 time=0.11770833333333333
note_on channel=0 note=71 velocity=0 time=0
note_on channel=0 note=83 velocity=0 time=0.007291666666666667
note_on channel=0 note=83 velocity=80 time=0
note_on channel=0 note=71 velocity=80 time=0
note_on channel=0 note=71 velocity=0 time=0.11770833333333333
note_on channel=0 note=76 velocity=0 time=0.007291666666666667
note_on channel=0 note=76 velocity=80 time=0
note_on channel=0 note=64 velocity=0 time=0
note_on channel=0 note=64 velocity=80 time=0
note_on channel=0 note=83 velocity=0 time=0.375
note_on channel=0 note=83 velocity=80 time=0
note_on channel=0 note=71 velocity=80 time=0
note_on channel=0 note=88 velocity=0 time=0.08645833333333333
note_on channel=0 note=76 velocity=0 time=0
note_on channel=0 note=79 velocity=0 time=0
note_on channel=0 note=64 velocity=0 time=0
note_on channel=0 note=83 velocity=0 time=0.03125
note_on channel=0 note=71 velocity=0 time=0
note_on channel=0 note=86 velocity=80 time=0.007291666666666667
note_on channel=0 note=74 velocity=80 time=0
note_on channel=0 note=79 velocity=80 time=0
note_on channel=0 note=62 velocity=80 time=0
note_on channel=0 note=67 velocity=80 time=0
note_on channel=0 note=86 velocity=0 time=0.11770833333333333
note_on channel=0 note=74 velocity=0 time=0
note_on channel=0 note=79 velocity=0 time=0
note_on channel=0 note=62 velocity=0 time=0
note_on channel=0 note=67 velocity=0 time=0
note_on channel=0 note=85 velocity=80 time=0.007291666666666667
note_on channel=0 note=73 velocity=80 time=0
note_on channel=0 note=83 velocity=80 time=0
note_on channel=0 note=61 velocity=80 time=0
note_on channel=0 note=71 velocity=80 time=0
note_on channel=0 note=85 velocity=0 time=0.11770833333333333
note_on channel=0 note=73 velocity=0 time=0
note_on channel=0 note=83 velocity=0 time=0
note_on channel=0 note=61 velocity=0 time=0
note_on channel=0 note=71 velocity=0 time=0
note_on channel=0 note=83 velocity=80 time=0.007291666666666667
note_on channel=0 note=71 velocity=80 time=0
note_on channel=0 note=74 velocity=80 time=0
note_on channel=0 note=78 velocity=80 time=0
note_on channel=0 note=66 velocity=80 time=0
note_on channel=0 note=59 velocity=80 time=0
note_on channel=0 note=62 velocity=80 time=0
note_on channel=0 note=71 velocity=0 time=0.125
note_on channel=0 note=71 velocity=80 time=0
note_on channel=0 note=83 velocity=0 time=0
note_on channel=0 note=83 velocity=80 time=0
note_on channel=0 note=66 velocity=0 time=0.11145833333333333
note_on channel=0 note=74 velocity=0 time=0.013541666666666667
note_on channel=0 note=74 velocity=80 time=0
note_on channel=0 note=62 velocity=0 time=0
note_on channel=0 note=62 velocity=80 time=0
note_on channel=0 note=83 velocity=0 time=0.375
note_on channel=0 note=83 velocity=80 time=0
note_on channel=0 note=71 velocity=0 time=0
note_on channel=0 note=71 velocity=80 time=0
note_on channel=0 note=78 velocity=0 time=0.125
note_on channel=0 note=78 velocity=80 time=0
note_on channel=0 note=66 velocity=80 time=0
note_on channel=0 note=66 velocity=0 time=0.11770833333333333
note_on channel=0 note=83 velocity=0 time=0.007291666666666667
note_on channel=0 note=83 velocity=80 time=0
note_on channel=0 note=71 velocity=0 time=0
note_on channel=0 note=71 velocity=80 time=0
note_on channel=0 note=74 velocity=0 time=0.07395833333333333
note_on channel=0 note=78 velocity=0 time=0
note_on channel=0 note=59 velocity=0 time=0
note_on channel=0 note=62 velocity=0 time=0
note_on channel=0 note=83 velocity=0 time=0.04375
note_on channel=0 note=71 velocity=0 time=0
note_on channel=0 note=74 velocity=80 time=0.007291666666666667
note_on channel=0 note=62 velocity=80 time=0
note_on channel=0 note=66 velocity=80 time=0
note_on channel=0 note=69 velocity=80 time=0
note_on channel=0 note=74 velocity=0 time=0.11770833333333333
note_on channel=0 note=62 velocity=0 time=0
note_on channel=0 note=66 velocity=0 time=0
note_on channel=0 note=69 velocity=0 time=0
note_on channel=0 note=81 velocity=80 time=0.007291666666666667
note_on channel=0 note=69 velocity=80 time=0
note_on channel=0 note=81 velocity=0 time=0.11770833333333333
note_on channel=0 note=69 velocity=0 time=0
note_on channel=0 note=74 velocity=80 time=0.007291666666666667
note_on channel=0 note=78 velocity=80 time=0
note_on channel=0 note=81 velocity=80 time=0
note_on channel=0 note=86 velocity=80 time=0
note_on channel=0 note=66 velocity=80 time=0
note_on channel=0 note=69 velocity=80 time=0
note_on channel=0 note=62 velocity=80 time=0
note_on channel=0 note=74 velocity=0 time=0.23645833333333333
note_on channel=0 note=78 velocity=0 time=0
note_on channel=0 note=81 velocity=0 time=0
note_on channel=0 note=86 velocity=0 time=0
note_on channel=0 note=62 velocity=0 time=0
note_on channel=0 note=71 velocity=80 time=0.013541666666666667
note_on channel=0 note=83 velocity=80 time=0
note_on channel=0 note=59 velocity=80 time=0
note_on channel=0 note=71 velocity=0 time=0.11770833333333333
note_on channel=0 note=69 velocity=80 time=0.007291666666666667
note_on channel=0 note=81 velocity=80 time=0
note_on channel=0 note=69 velocity=0 time=0
note_on channel=0 note=66 velocity=0 time=0.09895833333333333
note_on channel=0 note=83 velocity=0 time=0.0125
note_on channel=0 note=59 velocity=0 time=0
note_on channel=0 note=69 velocity=0 time=0.00625
note_on channel=0 note=81 velocity=0 time=0
note_on channel=0 note=73 velocity=80 time=0.007291666666666667
note_on channel=0 note=76 velocity=80 time=0
note_on channel=0 note=80 velocity=80 time=0
note_on channel=0 note=85 velocity=80 time=0
note_on channel=0 note=64 velocity=80 time=0
note_on channel=0 note=68 velocity=80 time=0
note_on channel=0 note=61 velocity=80 time=0
note_on channel=0 note=73 velocity=0 time=0.11770833333333333
note_on channel=0 note=76 velocity=0 time=0
note_on channel=0 note=80 velocity=0 time=0
note_on channel=0 note=64 velocity=0 time=0
note_on channel=0 note=68 velocity=0 time=0
note_on channel=0 note=80 velocity=80 time=0.007291666666666667
note_on channel=0 note=68 velocity=80 time=0
note_on channel=0 note=85 velocity=0 time=0.11145833333333333
note_on channel=0 note=61 velocity=0 time=0
note_on channel=0 note=80 velocity=0 time=0.00625
note_on channel=0 note=68 velocity=0 time=0
note_on channel=0 note=73 velocity=80 time=0.007291666666666667
note_on channel=0 note=76 velocity=80 time=0
note_on channel=0 note=80 velocity=80 time=0
note_on channel=0 note=83 velocity=80 time=0
note_on channel=0 note=64 velocity=80 time=0
note_on channel=0 note=68 velocity=80 time=0
note_on channel=0 note=71 velocity=80 time=0
note_on channel=0 note=59 velocity=80 time=0
note_on channel=0 note=73 velocity=0 time=0.11770833333333333
note_on channel=0 note=76 velocity=0 time=0
note_on channel=0 note=80 velocity=0 time=0
note_on channel=0 note=68 velocity=80 time=0.007291666666666667
note_on channel=0 note=80 velocity=80 time=0
note_on channel=0 note=68 velocity=0 time=0
note_on channel=0 note=83 velocity=0 time=0.11145833333333333
note_on channel=0 note=64 velocity=0 time=0
note_on channel=0 note=71 velocity=0 time=0
note_on channel=0 note=59 velocity=0 time=0
note_on channel=0 note=68 velocity=0 time=0.00625
note_on channel=0 note=80 velocity=0 time=0
note_on channel=0 note=69 velocity=80 time=0.007291666666666667
note_on channel=0 note=73 velocity=80 time=0
note_on channel=0 note=81 velocity=80 time=0
note_on channel=0 note=61 velocity=80 time=0
note_on channel=0 note=57 velocity=80 time=0
note_on channel=0 note=69 velocity=0 time=0.11770833333333333
note_on channel=0 note=73 velocity=0 time=0
note_on channel=0 note=81 velocity=0 time=0
note_on channel=0 note=57 velocity=0 time=0
note_on channel=0 note=68 velocity=80 time=0.007291666666666667
note_on channel=0 note=80 velocity=80 time=0
note_on channel=0 note=56 velocity=80 time=0
note_on channel=0 note=61 velocity=0 time=0.11145833333333333
note_on channel=0 note=68 velocity=0 time=0.00625
note_on channel=0 note=80 velocity=0 time=0
note_on channel=0 note=56 velocity=0 time=0
note_on channel=0 note=69 velocity=80 time=0.007291666666666667
note_on channel=0 note=73 velocity=80 time=0
note_on channel=0 note=78 velocity=80 time=0
note_on channel=0 note=81 velocity=80 time=0
note_on channel=0 note=61 velocity=80 time=0
note_on channel=0 note=66 velocity=80 time=0
note_on channel=0 note=57 velocity=80 time=0
note_on channel=0 note=69 velocity=0 time=0.11770833333333333
note_on channel=0 note=73 velocity=0 time=0
note_on channel=0 note=78 velocity=0 time=0
note_on channel=0 note=69 velocity=80 time=0.007291666666666667
note_on channel=0 note=81 velocity=0 time=0
note_on channel=0 note=81 velocity=80 time=0
note_on channel=0 note=61 velocity=0 time=0.11145833333333333
note_on channel=0 note=66 velocity=0 time=0
note_on channel=0 note=57 velocity=0 time=0
note_on channel=0 note=69 velocity=0 time=0.00625
note_on channel=0 note=81 velocity=0 time=0
note_on channel=0 note=66 velocity=80 time=0.007291666666666667
note_on channel=0 note=69 velocity=80 time=0
note_on channel=0 note=73 velocity=80 time=0
note_on channel=0 note=78 velocity=80 time=0
note_on channel=0 note=57 velocity=80 time=0
note_on channel=0 note=61 velocity=80 time=0
note_on channel=0 note=54 velocity=80 time=0
note_on channel=0 note=66 velocity=0 time=0.11770833333333333
note_on channel=0 note=69 velocity=0 time=0
note_on channel=0 note=73 velocity=0 time=0
note_on channel=0 note=69 velocity=80 time=0.007291666666666667
note_on channel=0 note=81 velocity=80 time=0
note_on channel=0 note=78 velocity=0 time=0.11145833333333333
note_on channel=0 note=57 velocity=0 time=0
note_on channel=0 note=61 velocity=0 time=0
note_on channel=0 note=54 velocity=0 time=0
note_on channel=0 note=69 velocity=0 time=0.00625
note_on channel=0 note=81 velocity=0 time=0
MetaMessage('time_signature', numerator=2, denominator=4, clocks_per_click=24, notated_32nd_notes_per_beat=8, time=0.007291666666666667)
note_on channel=0 note=74 velocity=80 time=0
note_on channel=0 note=78 velocity=80 time=0
note_on channel=0 note=83 velocity=80 time=0
note_on channel=0 note=71 velocity=80 time=0
note_on channel=0 note=62 velocity=80 time=0
note_on channel=0 note=66 velocity=80 time=0
note_on channel=0 note=59 velocity=80 time=0
note_on channel=0 note=62 velocity=0 time=0.11770833333333333
note_on channel=0 note=66 velocity=0 time=0
note_on channel=0 note=78 velocity=0 time=0.007291666666666667
note_on channel=0 note=78 velocity=80 time=0
note_on channel=0 note=66 velocity=80 time=0
note_on channel=0 note=66 velocity=0 time=0.11770833333333333
note_on channel=0 note=71 velocity=0 time=0.007291666666666667
note_on channel=0 note=71 velocity=80 time=0
note_on channel=0 note=59 velocity=0 time=0
note_on channel=0 note=59 velocity=80 time=0
note_on channel=0 note=74 velocity=0 time=0.22395833333333334
note_on channel=0 note=78 velocity=0 time=0
note_on channel=0 note=83 velocity=0 time=0
note_on channel=0 note=71 velocity=0 time=0.13125
note_on channel=0 note=59 velocity=0 time=0
note_on channel=0 note=69 velocity=80 time=0.019791666666666666
note_on channel=0 note=78 velocity=80 time=0
note_on channel=0 note=81 velocity=80 time=0
note_on channel=0 note=66 velocity=80 time=0
note_on channel=0 note=57 velocity=80 time=0
note_on channel=0 note=69 velocity=0 time=0.11770833333333333
note_on channel=0 note=78 velocity=0 time=0
note_on channel=0 note=81 velocity=0 time=0
note_on channel=0 note=66 velocity=0 time=0
note_on channel=0 note=57 velocity=0 time=0
note_on channel=0 note=68 velocity=80 time=0.007291666666666667
note_on channel=0 note=74 velocity=80 time=0
note_on channel=0 note=80 velocity=80 time=0
note_on channel=0 note=62 velocity=80 time=0
note_on channel=0 note=56 velocity=80 time=0
note_on channel=0 note=68 velocity=0 time=0.11770833333333333
note_on channel=0 note=74 velocity=0 time=0
note_on channel=0 note=80 velocity=0 time=0
note_on channel=0 note=62 velocity=0 time=0
note_on channel=0 note=56 velocity=0 time=0
note_on channel=0 note=66 velocity=80 time=0.007291666666666667
note_on channel=0 note=78 velocity=80 time=0
note_on channel=0 note=54 velocity=80 time=0
note_on channel=0 note=66 velocity=0 time=0.11770833333333333
note_on channel=0 note=78 velocity=0 time=0
note_on channel=0 note=54 velocity=0 time=0
MetaMessage('time_signature', numerator=4, denominator=4, clocks_per_click=24, notated_32nd_notes_per_beat=8, time=0.007291666666666667)
note_on channel=0 note=71 velocity=80 time=0
note_on channel=0 note=74 velocity=80 time=0
note_on channel=0 note=64 velocity=80 time=0
note_on channel=0 note=76 velocity=80 time=0
note_on channel=0 note=59 velocity=80 time=0
note_on channel=0 note=62 velocity=80 time=0
note_on channel=0 note=52 velocity=80 time=0
note_on channel=0 note=71 velocity=0 time=0.11770833333333333
note_on channel=0 note=74 velocity=0 time=0
note_on channel=0 note=64 velocity=0 time=0.007291666666666667
note_on channel=0 note=64 velocity=80 time=0
note_on channel=0 note=76 velocity=0 time=0
note_on channel=0 note=76 velocity=80 time=0
note_on channel=0 note=59 velocity=0 time=0.11145833333333333
note_on channel=0 note=62 velocity=0 time=0
note_on channel=0 note=71 velocity=80 time=0.013541666666666667
note_on channel=0 note=59 velocity=80 time=0
note_on channel=0 note=71 velocity=0 time=0.11770833333333333
note_on channel=0 note=64 velocity=0 time=0.007291666666666667
note_on channel=0 note=64 velocity=80 time=0
note_on channel=0 note=76 velocity=0 time=0
note_on channel=0 note=76 velocity=80 time=0
note_on channel=0 note=52 velocity=0 time=0.09895833333333333
note_on channel=0 note=59 velocity=0 time=0.0125
note_on channel=0 note=64 velocity=0 time=0.00625
note_on channel=0 note=76 velocity=0 time=0
note_on channel=0 note=73 velocity=80 time=0.007291666666666667
note_on channel=0 note=76 velocity=80 time=0
note_on channel=0 note=69 velocity=80 time=0
note_on channel=0 note=81 velocity=80 time=0
note_on channel=0 note=61 velocity=80 time=0
note_on channel=0 note=64 velocity=80 time=0
note_on channel=0 note=57 velocity=80 time=0
note_on channel=0 note=73 velocity=0 time=0.11770833333333333
note_on channel=0 note=76 velocity=0 time=0
note_on channel=0 note=61 velocity=0 time=0
note_on channel=0 note=64 velocity=0 time=0
note_on channel=0 note=76 velocity=80 time=0.007291666666666667
note_on channel=0 note=64 velocity=80 time=0
note_on channel=0 note=76 velocity=0 time=0.11770833333333333
note_on channel=0 note=64 velocity=0 time=0
note_on channel=0 note=69 velocity=0 time=0.007291666666666667
note_on channel=0 note=69 velocity=80 time=0
note_on channel=0 note=57 velocity=0 time=0
note_on channel=0 note=57 velocity=80 time=0
note_on channel=0 note=76 velocity=80 time=0.375
note_on channel=0 note=64 velocity=80 time=0
note_on channel=0 note=76 velocity=0 time=0.11770833333333333
note_on channel=0 note=64 velocity=0 time=0
note_on channel=0 note=73 velocity=80 time=0.007291666666666667
note_on channel=0 note=61 velocity=80 time=0
note_on channel=0 note=73 velocity=0 time=0.11770833333333333
note_on channel=0 note=61 velocity=0 time=0
note_on channel=0 note=76 velocity=80 time=0.007291666666666667
note_on channel=0 note=64 velocity=80 time=0
note_on channel=0 note=69 velocity=0 time=0.07395833333333333
note_on channel=0 note=81 velocity=0 time=0
note_on channel=0 note=57 velocity=0 time=0
note_on channel=0 note=76 velocity=0 time=0.04375
note_on channel=0 note=64 velocity=0 time=0
note_on channel=0 note=68 velocity=80 time=0.007291666666666667
note_on channel=0 note=71 velocity=80 time=0
note_on channel=0 note=73 velocity=80 time=0
note_on channel=0 note=80 velocity=80 time=0
note_on channel=0 note=59 velocity=80 time=0
note_on channel=0 note=61 velocity=80 time=0
note_on channel=0 note=56 velocity=80 time=0
note_on channel=0 note=68 velocity=0 time=0.11770833333333333
note_on channel=0 note=71 velocity=0 time=0
note_on channel=0 note=73 velocity=0 time=0
note_on channel=0 note=59 velocity=0 time=0
note_on channel=0 note=61 velocity=0 time=0
note_on channel=0 note=73 velocity=80 time=0.007291666666666667
note_on channel=0 note=64 velocity=80 time=0
note_on channel=0 note=80 velocity=0 time=0.11145833333333333
note_on channel=0 note=56 velocity=0 time=0
note_on channel=0 note=73 velocity=0 time=0.00625
note_on channel=0 note=64 velocity=0 time=0
note_on channel=0 note=69 velocity=80 time=0.007291666666666667
note_on channel=0 note=71 velocity=80 time=0
note_on channel=0 note=81 velocity=80 time=0
note_on channel=0 note=68 velocity=80 time=0
note_on channel=0 note=57 velocity=80 time=0
note_on channel=0 note=69 velocity=0 time=0.11770833333333333
note_on channel=0 note=71 velocity=0 time=0
note_on channel=0 note=81 velocity=0 time=0
note_on channel=0 note=68 velocity=0 time=0
note_on channel=0 note=57 velocity=0 time=0
note_on channel=0 note=68 velocity=80 time=0.007291666666666667
note_on channel=0 note=73 velocity=80 time=0
note_on channel=0 note=80 velocity=80 time=0
note_on channel=0 note=61 velocity=80 time=0
note_on channel=0 note=56 velocity=80 time=0
note_on channel=0 note=68 velocity=0 time=0.11770833333333333
note_on channel=0 note=73 velocity=0 time=0
note_on channel=0 note=80 velocity=0 time=0
note_on channel=0 note=61 velocity=0 time=0
note_on channel=0 note=56 velocity=0 time=0
note_on channel=0 note=66 velocity=80 time=0.007291666666666667
note_on channel=0 note=69 velocity=80 time=0
note_on channel=0 note=73 velocity=80 time=0
note_on channel=0 note=78 velocity=80 time=0
note_on channel=0 note=54 velocity=80 time=0
note_on channel=0 note=57 velocity=80 time=0
note_on channel=0 note=61 velocity=80 time=0
note_on channel=0 note=66 velocity=0 time=0.11770833333333333
note_on channel=0 note=69 velocity=0 time=0
note_on channel=0 note=73 velocity=0 time=0
note_on channel=0 note=73 velocity=80 time=0.007291666666666667
note_on channel=0 note=61 velocity=0 time=0
note_on channel=0 note=61 velocity=80 time=0
note_on channel=0 note=73 velocity=0 time=0.11770833333333333
note_on channel=0 note=66 velocity=80 time=0.007291666666666667
note_on channel=0 note=66 velocity=0 time=0.35520833333333335
note_on channel=0 note=73 velocity=80 time=0.019791666666666666
note_on channel=0 note=61 velocity=0 time=0
note_on channel=0 note=61 velocity=80 time=0
note_on channel=0 note=73 velocity=0 time=0.11770833333333333
note_on channel=0 note=66 velocity=80 time=0.007291666666666667
note_on channel=0 note=57 velocity=0 time=0
note_on channel=0 note=57 velocity=80 time=0
note_on channel=0 note=66 velocity=0 time=0.11770833333333333
note_on channel=0 note=73 velocity=80 time=0.007291666666666667
note_on channel=0 note=61 velocity=0 time=0
note_on channel=0 note=61 velocity=80 time=0
note_on channel=0 note=54 velocity=0 time=0.07395833333333333
note_on channel=0 note=57 velocity=0 time=0
note_on channel=0 note=73 velocity=0 time=0.04375
note_on channel=0 note=61 velocity=0 time=0
note_on channel=0 note=69 velocity=80 time=0.007291666666666667
note_on channel=0 note=57 velocity=80 time=0
note_on channel=0 note=69 velocity=0 time=0.11770833333333333
note_on channel=0 note=57 velocity=0 time=0
note_on channel=0 note=73 velocity=80 time=0.007291666666666667
note_on channel=0 note=61 velocity=80 time=0
note_on channel=0 note=78 velocity=0 time=0.06145833333333333
note_on channel=0 note=73 velocity=0 time=0.05625
note_on channel=0 note=61 velocity=0 time=0
note_on channel=0 note=68 velocity=80 time=0.007291666666666667
note_on channel=0 note=71 velocity=80 time=0
note_on channel=0 note=80 velocity=80 time=0
note_on channel=0 note=59 velocity=80 time=0
note_on channel=0 note=68 velocity=0 time=0.11770833333333333
note_on channel=0 note=71 velocity=0 time=0
note_on channel=0 note=59 velocity=0 time=0
note_on channel=0 note=73 velocity=80 time=0.007291666666666667
note_on channel=0 note=61 velocity=80 time=0
note_on channel=0 note=80 velocity=0 time=0.11145833333333333
note_on channel=0 note=73 velocity=0 time=0.00625
note_on channel=0 note=61 velocity=0 time=0
note_on channel=0 note=64 velocity=80 time=0.007291666666666667
note_on channel=0 note=68 velocity=80 time=0
note_on channel=0 note=71 velocity=80 time=0
note_on channel=0 note=76 velocity=80 time=0
note_on channel=0 note=59 velocity=80 time=0
note_on channel=0 note=64 velocity=0 time=0.11770833333333333
note_on channel=0 note=68 velocity=0 time=0
note_on channel=0 note=71 velocity=0 time=0
note_on channel=0 note=64 velocity=80 time=0.007291666666666667
note_on channel=0 note=73 velocity=80 time=0
note_on channel=0 note=76 velocity=0 time=0.11145833333333333
note_on channel=0 note=59 velocity=0 time=0
note_on channel=0 note=64 velocity=0 time=0.00625
note_on channel=0 note=73 velocity=0 time=0
note_on channel=0 note=66 velocity=80 time=0.007291666666666667
note_on channel=0 note=71 velocity=80 time=0
note_on channel=0 note=78 velocity=80 time=0
note_on channel=0 note=56 velocity=80 time=0
note_on channel=0 note=66 velocity=0 time=0.11770833333333333
note_on channel=0 note=71 velocity=0 time=0
note_on channel=0 note=64 velocity=80 time=0.007291666666666667
note_on channel=0 note=73 velocity=80 time=0
note_on channel=0 note=78 velocity=0 time=0.11145833333333333
note_on channel=0 note=56 velocity=0 time=0
note_on channel=0 note=64 velocity=0 time=0.00625
note_on channel=0 note=73 velocity=0 time=0
note_on channel=0 note=80 velocity=80 time=0.007291666666666667
note_on channel=0 note=68 velocity=80 time=0
note_on channel=0 note=71 velocity=80 time=0
note_on channel=0 note=76 velocity=80 time=0
note_on channel=0 note=52 velocity=80 time=0
note_on channel=0 note=59 velocity=80 time=0
note_on channel=0 note=68 velocity=0 time=0.11770833333333333
note_on channel=0 note=71 velocity=0 time=0
note_on channel=0 note=76 velocity=0 time=0
note_on channel=0 note=52 velocity=0 time=0
note_on channel=0 note=59 velocity=0 time=0
note_on channel=0 note=76 velocity=80 time=0.007291666666666667
note_on channel=0 note=64 velocity=80 time=0
note_on channel=0 note=64 velocity=0 time=0.11770833333333333
note_on channel=0 note=64 velocity=80 time=0.007291666666666667
note_on channel=0 note=76 velocity=0 time=0.3489583333333333
note_on channel=0 note=76 velocity=80 time=0.026041666666666668
note_on channel=0 note=80 velocity=0 time=0.08645833333333333
note_on channel=0 note=64 velocity=0 time=0.0125
note_on channel=0 note=83 velocity=80 time=0.026041666666666668
note_on channel=0 note=74 velocity=80 time=0
note_on channel=0 note=71 velocity=80 time=0
note_on channel=0 note=76 velocity=0 time=0.11145833333333333
note_on channel=0 note=76 velocity=80 time=0.013541666666666667
note_on channel=0 note=83 velocity=0 time=0.11145833333333333
note_on channel=0 note=74 velocity=0 time=0
note_on channel=0 note=71 velocity=0 time=0
note_on channel=0 note=76 velocity=0 time=0.013541666666666667
note_on channel=0 note=76 velocity=80 time=0
note_on channel=0 note=81 velocity=80 time=0
note_on channel=0 note=66 velocity=80 time=0
note_on channel=0 note=73 velocity=80 time=0
note_on channel=0 note=69 velocity=80 time=0
note_on channel=0 note=76 velocity=0 time=0.125
note_on channel=0 note=76 velocity=80 time=0
note_on channel=0 note=81 velocity=0 time=0.11145833333333333
note_on channel=0 note=66 velocity=0 time=0
note_on channel=0 note=73 velocity=0 time=0
note_on channel=0 note=69 velocity=0 time=0
note_on channel=0 note=80 velocity=80 time=0.013541666666666667
note_on channel=0 note=71 velocity=80 time=0
note_on channel=0 note=68 velocity=80 time=0
note_on channel=0 note=76 velocity=0 time=0.11145833333333333
note_on channel=0 note=73 velocity=80 time=0.013541666666666667
note_on channel=0 note=80 velocity=0 time=0.11145833333333333
note_on channel=0 note=71 velocity=0 time=0
note_on channel=0 note=68 velocity=0 time=0
note_on channel=0 note=73 velocity=0 time=0.00625
note_on channel=0 note=73 velocity=80 time=0.007291666666666667
note_on channel=0 note=78 velocity=80 time=0
note_on channel=0 note=64 velocity=80 time=0
note_on channel=0 note=69 velocity=80 time=0
note_on channel=0 note=66 velocity=80 time=0
note_on channel=0 note=73 velocity=0 time=0.23645833333333333
note_on channel=0 note=78 velocity=0 time=0
note_on channel=0 note=80 velocity=80 time=0.013541666666666667
note_on channel=0 note=68 velocity=80 time=0
note_on channel=0 note=80 velocity=0 time=0.11770833333333333
note_on channel=0 note=68 velocity=0 time=0
note_on channel=0 note=78 velocity=80 time=0.007291666666666667
note_on channel=0 note=66 velocity=80 time=0
note_on channel=0 note=73 velocity=80 time=0
note_on channel=0 note=66 velocity=0 time=0
note_on channel=0 note=64 velocity=0 time=0.09895833333333333
note_on channel=0 note=69 velocity=0 time=0
note_on channel=0 note=78 velocity=0 time=0.01875
note_on channel=0 note=66 velocity=0 time=0
note_on channel=0 note=73 velocity=0 time=0
note_on channel=0 note=64 velocity=80 time=0.007291666666666667
note_on channel=0 note=68 velocity=80 time=0
note_on channel=0 note=71 velocity=80 time=0
note_on channel=0 note=76 velocity=80 time=0
note_on channel=0 note=62 velocity=80 time=0
note_on channel=0 note=64 velocity=0 time=0.11770833333333333
note_on channel=0 note=68 velocity=0 time=0
note_on channel=0 note=71 velocity=0 time=0
note_on channel=0 note=71 velocity=80 time=0.007291666666666667
note_on channel=0 note=76 velocity=0 time=0.11145833333333333
note_on channel=0 note=71 velocity=0 time=0.00625
note_on channel=0 note=62 velocity=80 time=0.007291666666666667
note_on channel=0 note=66 velocity=80 time=0
note_on channel=0 note=74 velocity=80 time=0
note_on channel=0 note=62 velocity=0 time=0
note_on channel=0 note=66 velocity=0 time=0.11770833333333333
note_on channel=0 note=74 velocity=0 time=0
note_on channel=0 note=64 velocity=80 time=0.007291666666666667
note_on channel=0 note=68 velocity=80 time=0
note_on channel=0 note=76 velocity=80 time=0
note_on channel=0 note=62 velocity=0 time=0.09895833333333333
note_on channel=0 note=64 velocity=0 time=0.01875
note_on channel=0 note=68 velocity=0 time=0
note_on channel=0 note=76 velocity=0 time=0
note_on channel=0 note=66 velocity=80 time=0.007291666666666667
note_on channel=0 note=69 velocity=80 time=0
note_on channel=0 note=73 velocity=80 time=0
note_on channel=0 note=78 velocity=80 time=0
note_on channel=0 note=61 velocity=80 time=0
note_on channel=0 note=64 velocity=80 time=0
note_on channel=0 note=66 velocity=0 time=0.11770833333333333
note_on channel=0 note=69 velocity=0 time=0
note_on channel=0 note=73 velocity=0 time=0
note_on channel=0 note=73 velocity=80 time=0.007291666666666667
note_on channel=0 note=73 velocity=0 time=0.11770833333333333
note_on channel=0 note=66 velocity=80 time=0.007291666666666667
note_on channel=0 note=66 velocity=0 time=0.11770833333333333
note_on channel=0 note=73 velocity=80 time=0.007291666666666667
note_on channel=0 note=61 velocity=0 time=0.09895833333333333
note_on channel=0 note=64 velocity=0 time=0
note_on channel=0 note=73 velocity=0 time=0.01875
note_on channel=0 note=69 velocity=80 time=0.007291666666666667
note_on channel=0 note=78 velocity=0 time=0.21145833333333333
note_on channel=0 note=69 velocity=0 time=0.025
note_on channel=0 note=76 velocity=80 time=0.013541666666666667
note_on channel=0 note=64 velocity=80 time=0
note_on channel=0 note=76 velocity=0 time=0.125
note_on channel=0 note=76 velocity=80 time=0
note_on channel=0 note=64 velocity=0 time=0.11145833333333333
note_on channel=0 note=76 velocity=0 time=0.00625
note_on channel=0 note=76 velocity=80 time=0.007291666666666667
note_on channel=0 note=81 velocity=80 time=0
note_on channel=0 note=69 velocity=80 time=0
note_on channel=0 note=66 velocity=80 time=0
note_on channel=0 note=73 velocity=80 time=0
note_on channel=0 note=76 velocity=0 time=0.11770833333333333
note_on channel=0 note=76 velocity=80 time=0.007291666666666667
note_on channel=0 note=81 velocity=0 time=0.11145833333333333
note_on channel=0 note=69 velocity=0 time=0
note_on channel=0 note=66 velocity=0 time=0
note_on channel=0 note=73 velocity=0 time=0
note_on channel=0 note=76 velocity=0 time=0.00625
note_on channel=0 note=78 velocity=80 time=0.007291666666666667
note_on channel=0 note=66 velocity=80 time=0
note_on channel=0 note=69 velocity=80 time=0
note_on channel=0 note=73 velocity=80 time=0.125
note_on channel=0 note=78 velocity=0 time=0.11145833333333333
note_on channel=0 note=66 velocity=0 time=0
note_on channel=0 note=69 velocity=0 time=0
note_on channel=0 note=73 velocity=0 time=0.00625
note_on channel=0 note=76 velocity=80 time=0.007291666666666667
note_on channel=0 note=73 velocity=80 time=0
note_on channel=0 note=68 velocity=80 time=0
note_on channel=0 note=69 velocity=80 time=0
note_on channel=0 note=64 velocity=80 time=0
note_on channel=0 note=73 velocity=0 time=0.11770833333333333
note_on channel=0 note=73 velocity=80 time=0.007291666666666667
note_on channel=0 note=76 velocity=0 time=0.11145833333333333
note_on channel=0 note=68 velocity=0 time=0
note_on channel=0 note=69 velocity=0 time=0
note_on channel=0 note=64 velocity=0 time=0
note_on channel=0 note=73 velocity=0 time=0.00625
note_on channel=0 note=78 velocity=80 time=0.007291666666666667
note_on channel=0 note=69 velocity=80 time=0
note_on channel=0 note=66 velocity=80 time=0
note_on channel=0 note=78 velocity=0 time=0.11770833333333333
note_on channel=0 note=69 velocity=0 time=0
note_on channel=0 note=66 velocity=0 time=0
note_on channel=0 note=76 velocity=80 time=0.007291666666666667
note_on channel=0 note=73 velocity=80 time=0
note_on channel=0 note=64 velocity=80 time=0
note_on channel=0 note=76 velocity=0 time=0.11770833333333333
note_on channel=0 note=73 velocity=0 time=0
note_on channel=0 note=64 velocity=0 time=0
note_on channel=0 note=74 velocity=80 time=0.007291666666666667
note_on channel=0 note=66 velocity=80 time=0
note_on channel=0 note=69 velocity=80 time=0
note_on channel=0 note=62 velocity=80 time=0
note_on channel=0 note=73 velocity=80 time=0.125
note_on channel=0 note=74 velocity=0 time=0.11145833333333333
note_on channel=0 note=66 velocity=0 time=0
note_on channel=0 note=69 velocity=0 time=0
note_on channel=0 note=62 velocity=0 time=0
note_on channel=0 note=73 velocity=0 time=0.00625
note_on channel=0 note=76 velocity=80 time=0.007291666666666667
note_on channel=0 note=68 velocity=80 time=0
note_on channel=0 note=71 velocity=80 time=0
note_on channel=0 note=64 velocity=80 time=0
note_on channel=0 note=76 velocity=0 time=0.23645833333333333
note_on channel=0 note=68 velocity=0 time=0
note_on channel=0 note=71 velocity=0 time=0
note_on channel=0 note=64 velocity=0 time=0
note_on channel=0 note=73 velocity=80 time=0.013541666666666667
note_on channel=0 note=64 velocity=80 time=0
note_on channel=0 note=68 velocity=80 time=0
note_on channel=0 note=61 velocity=80 time=0
note_on channel=0 note=76 velocity=80 time=0.125
note_on channel=0 note=76 velocity=0 time=0.11770833333333333
note_on channel=0 note=73 velocity=0 time=0.007291666666666667
note_on channel=0 note=73 velocity=80 time=0
note_on channel=0 note=76 velocity=80 time=0.125
note_on channel=0 note=73 velocity=0 time=0.09895833333333333
note_on channel=0 note=64 velocity=0 time=0
note_on channel=0 note=68 velocity=0 time=0
note_on channel=0 note=61 velocity=0 time=0
note_on channel=0 note=76 velocity=0 time=0.01875
note_on channel=0 note=74 velocity=80 time=0.007291666666666667
note_on channel=0 note=69 velocity=80 time=0
note_on channel=0 note=59 velocity=80 time=0
note_on channel=0 note=66 velocity=80 time=0
note_on channel=0 note=62 velocity=80 time=0
note_on channel=0 note=74 velocity=0 time=0.11770833333333333
note_on channel=0 note=62 velocity=0 time=0
note_on channel=0 note=73 velocity=80 time=0.007291666666666667
note_on channel=0 note=61 velocity=80 time=0
note_on channel=0 note=69 velocity=0 time=0.11145833333333333
note_on channel=0 note=59 velocity=0 time=0
note_on channel=0 note=66 velocity=0 time=0
note_on channel=0 note=73 velocity=0 time=0.00625
note_on channel=0 note=61 velocity=0 time=0
note_on channel=0 note=71 velocity=80 time=0.007291666666666667
note_on channel=0 note=69 velocity=80 time=0
note_on channel=0 note=66 velocity=80 time=0
note_on channel=0 note=59 velocity=80 time=0
note_on channel=0 note=69 velocity=0 time=0.11770833333333333
note_on channel=0 note=71 velocity=0 time=0.007291666666666667
note_on channel=0 note=71 velocity=80 time=0
note_on channel=0 note=66 velocity=0 time=0.11145833333333333
note_on channel=0 note=59 velocity=0 time=0
note_on channel=0 note=71 velocity=0 time=0.00625
note_on channel=0 note=64 velocity=80 time=0.007291666666666667
note_on channel=0 note=76 velocity=80 time=0
note_on channel=0 note=68 velocity=80 time=0
note_on channel=0 note=71 velocity=80 time=0
note_on channel=0 note=68 velocity=0 time=0.11770833333333333
note_on channel=0 note=71 velocity=0 time=0
note_on channel=0 note=71 velocity=80 time=0.007291666666666667
note_on channel=0 note=71 velocity=0 time=0.11770833333333333
note_on channel=0 note=64 velocity=0 time=0.007291666666666667
note_on channel=0 note=64 velocity=80 time=0
note_on channel=0 note=71 velocity=80 time=0.375
note_on channel=0 note=71 velocity=0 time=0.11770833333333333
note_on channel=0 note=68 velocity=80 time=0.007291666666666667
note_on channel=0 note=68 velocity=0 time=0.23645833333333333
note_on channel=0 note=56 velocity=80 time=0.013541666666666667
note_on channel=0 note=59 velocity=80 time=0
note_on channel=0 note=64 velocity=0 time=0.125
note_on channel=0 note=64 velocity=80 time=0
note_on channel=0 note=71 velocity=80 time=0
note_on channel=0 note=71 velocity=0 time=0.11770833333333333
note_on channel=0 note=64 velocity=0 time=0.007291666666666667
note_on channel=0 note=64 velocity=80 time=0
note_on channel=0 note=71 velocity=80 time=0.125
note_on channel=0 note=64 velocity=0 time=0.04895833333333333
note_on channel=0 note=76 velocity=0 time=0
note_on channel=0 note=56 velocity=0 time=0.05
note_on channel=0 note=59 velocity=0 time=0
note_on channel=0 note=71 velocity=0 time=0.01875
note_on channel=0 note=74 velocity=80 time=0.007291666666666667
note_on channel=0 note=62 velocity=80 time=0
note_on channel=0 note=66 velocity=80 time=0
note_on channel=0 note=54 velocity=80 time=0
note_on channel=0 note=57 velocity=80 time=0
note_on channel=0 note=62 velocity=0 time=0.11770833333333333
note_on channel=0 note=66 velocity=0 time=0
note_on channel=0 note=62 velocity=80 time=0.007291666666666667
note_on channel=0 note=69 velocity=80 time=0
note_on channel=0 note=74 velocity=0 time=0.11145833333333333
note_on channel=0 note=54 velocity=0 time=0
note_on channel=0 note=57 velocity=0 time=0
note_on channel=0 note=62 velocity=0 time=0.00625
note_on channel=0 note=69 velocity=0 time=0
note_on channel=0 note=76 velocity=80 time=0.007291666666666667
note_on channel=0 note=64 velocity=80 time=0
note_on channel=0 note=62 velocity=80 time=0
note_on channel=0 note=76 velocity=0 time=0.11770833333333333
note_on channel=0 note=64 velocity=0 time=0
note_on channel=0 note=74 velocity=80 time=0.007291666666666667
note_on channel=0 note=62 velocity=80 time=0
note_on channel=0 note=69 velocity=80 time=0
note_on channel=0 note=62 velocity=0 time=0
note_on channel=0 note=74 velocity=0 time=0.11770833333333333
note_on channel=0 note=62 velocity=0 time=0
note_on channel=0 note=69 velocity=0 time=0
note_on channel=0 note=61 velocity=80 time=0.007291666666666667
note_on channel=0 note=73 velocity=80 time=0
note_on channel=0 note=64 velocity=80 time=0
note_on channel=0 note=68 velocity=80 time=0
note_on channel=0 note=49 velocity=80 time=0
note_on channel=0 note=56 velocity=80 time=0
note_on channel=0 note=64 velocity=0 time=0.11770833333333333
note_on channel=0 note=68 velocity=0 time=0
note_on channel=0 note=61 velocity=0 time=0.007291666666666667
note_on channel=0 note=61 velocity=80 time=0
note_on channel=0 note=68 velocity=80 time=0
note_on channel=0 note=68 velocity=0 time=0.11770833333333333
note_on channel=0 note=61 velocity=0 time=0.007291666666666667
note_on channel=0 note=61 velocity=80 time=0
note_on channel=0 note=68 velocity=80 time=0.125
note_on channel=0 note=68 velocity=0 time=0.11770833333333333
note_on channel=0 note=73 velocity=0 time=0.007291666666666667
note_on channel=0 note=73 velocity=80 time=0
note_on channel=0 note=61 velocity=0 time=0.21145833333333333
note_on channel=0 note=49 velocity=0 time=0
note_on channel=0 note=56 velocity=0 time=0
note_on channel=0 note=73 velocity=0 time=0.025
note_on channel=0 note=85 velocity=80 time=0.013541666666666667
note_on channel=0 note=73 velocity=80 time=0
note_on channel=0 note=80 velocity=80 time=0.125
note_on channel=0 note=68 velocity=80 time=0
note_on channel=0 note=85 velocity=0 time=0.11145833333333333
note_on channel=0 note=73 velocity=0 time=0
note_on channel=0 note=80 velocity=0 time=0.00625
note_on channel=0 note=68 velocity=0 time=0
note_on channel=0 note=83 velocity=80 time=0.007291666666666667
note_on channel=0 note=78 velocity=80 time=0
note_on channel=0 note=71 velocity=80 time=0
note_on channel=0 note=66 velocity=80 time=0
note_on channel=0 note=78 velocity=0 time=0.11770833333333333
note_on channel=0 note=66 velocity=0 time=0
note_on channel=0 note=80 velocity=80 time=0.007291666666666667
note_on channel=0 note=68 velocity=80 time=0
note_on channel=0 note=83 velocity=0 time=0.11145833333333333
note_on channel=0 note=71 velocity=0 time=0
note_on channel=0 note=80 velocity=0 time=0.00625
note_on channel=0 note=68 velocity=0 time=0
note_on channel=0 note=85 velocity=80 time=0.007291666666666667
note_on channel=0 note=76 velocity=80 time=0
note_on channel=0 note=73 velocity=80 time=0
note_on channel=0 note=64 velocity=80 time=0
note_on channel=0 note=76 velocity=0 time=0.11770833333333333
note_on channel=0 note=64 velocity=0 time=0
note_on channel=0 note=81 velocity=80 time=0.007291666666666667
note_on channel=0 note=69 velocity=80 time=0
note_on channel=0 note=85 velocity=0 time=0.11145833333333333
note_on channel=0 note=73 velocity=0 time=0
note_on channel=0 note=81 velocity=0 time=0.00625
note_on channel=0 note=69 velocity=0 time=0
note_on channel=0 note=81 velocity=80 time=0.007291666666666667
note_on channel=0 note=76 velocity=80 time=0
note_on channel=0 note=69 velocity=80 time=0
note_on channel=0 note=64 velocity=80 time=0
note_on channel=0 note=76 velocity=0 time=0.11770833333333333
note_on channel=0 note=64 velocity=0 time=0
note_on channel=0 note=78 velocity=80 time=0.007291666666666667
note_on channel=0 note=66 velocity=80 time=0
note_on channel=0 note=78 velocity=0 time=0.11770833333333333
note_on channel=0 note=66 velocity=0 time=0
note_on channel=0 note=75 velocity=80 time=0.007291666666666667
note_on channel=0 note=63 velocity=80 time=0
note_on channel=0 note=75 velocity=0 time=0.11770833333333333
note_on channel=0 note=63 velocity=0 time=0
note_on channel=0 note=78 velocity=80 time=0.007291666666666667
note_on channel=0 note=66 velocity=80 time=0
note_on channel=0 note=81 velocity=0 time=0.09895833333333333
note_on channel=0 note=69 velocity=0 time=0
note_on channel=0 note=78 velocity=0 time=0.01875
note_on channel=0 note=66 velocity=0 time=0
note_on channel=0 note=76 velocity=80 time=0.007291666666666667
note_on channel=0 note=61 velocity=80 time=0
note_on channel=0 note=64 velocity=80 time=0
note_on channel=0 note=76 velocity=0 time=0.23645833333333333
note_on channel=0 note=61 velocity=0 time=0
note_on channel=0 note=64 velocity=0 time=0
note_on channel=0 note=83 velocity=80 time=0.013541666666666667
note_on channel=0 note=71 velocity=80 time=0
note_on channel=0 note=78 velocity=80 time=0.125
note_on channel=0 note=66 velocity=80 time=0
note_on channel=0 note=83 velocity=0 time=0.11145833333333333
note_on channel=0 note=71 velocity=0 time=0
note_on channel=0 note=78 velocity=0 time=0.00625
note_on channel=0 note=66 velocity=0 time=0
note_on channel=0 note=80 velocity=80 time=0.007291666666666667
note_on channel=0 note=75 velocity=80 time=0
note_on channel=0 note=68 velocity=80 time=0
note_on channel=0 note=59 velocity=80 time=0
note_on channel=0 note=63 velocity=80 time=0
note_on channel=0 note=75 velocity=0 time=0.11770833333333333
note_on channel=0 note=59 velocity=0 time=0
note_on channel=0 note=63 velocity=0 time=0
note_on channel=0 note=78 velocity=80 time=0.007291666666666667
note_on channel=0 note=66 velocity=80 time=0
note_on channel=0 note=80 velocity=0 time=0.11145833333333333
note_on channel=0 note=68 velocity=0 time=0
note_on channel=0 note=78 velocity=0 time=0.00625
note_on channel=0 note=66 velocity=0 time=0
note_on channel=0 note=81 velocity=80 time=0.007291666666666667
note_on channel=0 note=76 velocity=80 time=0
note_on channel=0 note=69 velocity=80 time=0
note_on channel=0 note=64 velocity=80 time=0
note_on channel=0 note=76 velocity=0 time=0.11770833333333333
note_on channel=0 note=64 velocity=0 time=0
note_on channel=0 note=78 velocity=80 time=0.007291666666666667
note_on channel=0 note=66 velocity=80 time=0
note_on channel=0 note=81 velocity=0 time=0.11145833333333333
note_on channel=0 note=69 velocity=0 time=0
note_on channel=0 note=78 velocity=0 time=0.00625
note_on channel=0 note=66 velocity=0 time=0
note_on channel=0 note=78 velocity=80 time=0.007291666666666667
note_on channel=0 note=73 velocity=80 time=0
note_on channel=0 note=66 velocity=80 time=0
note_on channel=0 note=57 velocity=80 time=0
note_on channel=0 note=61 velocity=80 time=0
note_on channel=0 note=73 velocity=0 time=0.11770833333333333
note_on channel=0 note=57 velocity=0 time=0
note_on channel=0 note=61 velocity=0 time=0
note_on channel=0 note=75 velocity=80 time=0.007291666666666667
note_on channel=0 note=63 velocity=80 time=0
note_on channel=0 note=75 velocity=0 time=0.11770833333333333
note_on channel=0 note=63 velocity=0 time=0
note_on channel=0 note=71 velocity=80 time=0.007291666666666667
note_on channel=0 note=59 velocity=80 time=0
note_on channel=0 note=71 velocity=0 time=0.11770833333333333
note_on channel=0 note=59 velocity=0 time=0
note_on channel=0 note=76 velocity=80 time=0.007291666666666667
note_on channel=0 note=64 velocity=80 time=0
note_on channel=0 note=76 velocity=0 time=0.11770833333333333
note_on channel=0 note=64 velocity=0 time=0
note_on channel=0 note=73 velocity=80 time=0.007291666666666667
note_on channel=0 note=61 velocity=80 time=0
note_on channel=0 note=78 velocity=0 time=0.21145833333333333
note_on channel=0 note=66 velocity=0 time=0
note_on channel=0 note=73 velocity=0 time=0.025
note_on channel=0 note=61 velocity=0 time=0
note_on channel=0 note=76 velocity=80 time=0.013541666666666667
note_on channel=0 note=64 velocity=80 time=0
note_on channel=0 note=56 velocity=80 time=0
note_on channel=0 note=56 velocity=0 time=0.11770833333333333
note_on channel=0 note=71 velocity=80 time=0.007291666666666667
note_on channel=0 note=59 velocity=80 time=0
note_on channel=0 note=76 velocity=0 time=0.11145833333333333
note_on channel=0 note=64 velocity=0 time=0
note_on channel=0 note=71 velocity=0 time=0.00625
note_on channel=0 note=59 velocity=0 time=0
MetaMessage('time_signature', numerator=2, denominator=4, clocks_per_click=24, notated_32nd_notes_per_beat=8, time=0.007291666666666667)
note_on channel=0 note=74 velocity=80 time=0
note_on channel=0 note=69 velocity=80 time=0
note_on channel=0 note=62 velocity=80 time=0
note_on channel=0 note=54 velocity=80 time=0
note_on channel=0 note=57 velocity=80 time=0
note_on channel=0 note=69 velocity=0 time=0.11770833333333333
note_on channel=0 note=54 velocity=0 time=0
note_on channel=0 note=57 velocity=0 time=0
note_on channel=0 note=71 velocity=80 time=0.007291666666666667
note_on channel=0 note=59 velocity=80 time=0
note_on channel=0 note=74 velocity=0 time=0.11145833333333333
note_on channel=0 note=62 velocity=0 time=0
note_on channel=0 note=71 velocity=0 time=0.00625
note_on channel=0 note=59 velocity=0 time=0
note_on channel=0 note=73 velocity=80 time=0.007291666666666667
note_on channel=0 note=68 velocity=80 time=0
note_on channel=0 note=61 velocity=80 time=0
note_on channel=0 note=52 velocity=80 time=0
note_on channel=0 note=56 velocity=80 time=0
note_on channel=0 note=73 velocity=0 time=0.11770833333333333
note_on channel=0 note=68 velocity=0 time=0
note_on channel=0 note=61 velocity=0 time=0
note_on channel=0 note=52 velocity=0 time=0
note_on channel=0 note=56 velocity=0 time=0
note_on channel=0 note=74 velocity=80 time=0.007291666666666667
note_on channel=0 note=71 velocity=80 time=0
note_on channel=0 note=62 velocity=80 time=0
note_on channel=0 note=59 velocity=80 time=0
note_on channel=0 note=74 velocity=0 time=0.11770833333333333
note_on channel=0 note=71 velocity=0 time=0
note_on channel=0 note=62 velocity=0 time=0
note_on channel=0 note=59 velocity=0 time=0
note_on channel=0 note=73 velocity=80 time=0.007291666666666667
note_on channel=0 note=69 velocity=80 time=0
note_on channel=0 note=61 velocity=80 time=0
note_on channel=0 note=54 velocity=80 time=0
note_on channel=0 note=57 velocity=80 time=0
note_on channel=0 note=69 velocity=0 time=0.11770833333333333
note_on channel=0 note=54 velocity=0 time=0
note_on channel=0 note=57 velocity=0 time=0
note_on channel=0 note=71 velocity=80 time=0.007291666666666667
note_on channel=0 note=59 velocity=80 time=0
note_on channel=0 note=71 velocity=0 time=0.11770833333333333
note_on channel=0 note=59 velocity=0 time=0
note_on channel=0 note=66 velocity=80 time=0.007291666666666667
note_on channel=0 note=54 velocity=80 time=0
note_on channel=0 note=66 velocity=0 time=0.11770833333333333
note_on channel=0 note=54 velocity=0 time=0
note_on channel=0 note=69 velocity=80 time=0.007291666666666667
note_on channel=0 note=57 velocity=80 time=0
note_on channel=0 note=73 velocity=0 time=0.09895833333333333
note_on channel=0 note=61 velocity=0 time=0
note_on channel=0 note=69 velocity=0 time=0.01875
note_on channel=0 note=57 velocity=0 time=0
MetaMessage('time_signature', numerator=4, denominator=4, clocks_per_click=24, notated_32nd_notes_per_beat=8, time=0.007291666666666667)
note_on channel=0 note=68 velocity=80 time=0
note_on channel=0 note=56 velocity=80 time=0
note_on channel=0 note=68 velocity=0 time=0.23645833333333333
note_on channel=0 note=73 velocity=80 time=0.013541666666666667
note_on channel=0 note=56 velocity=0 time=0.22395833333333334
note_on channel=0 note=73 velocity=0 time=0.0125
note_on channel=0 note=62 velocity=80 time=0.013541666666666667
note_on channel=0 note=71 velocity=80 time=0
note_on channel=0 note=49 velocity=80 time=0
note_on channel=0 note=53 velocity=80 time=0
note_on channel=0 note=62 velocity=0 time=0.23645833333333333
note_on channel=0 note=71 velocity=0 time=0
note_on channel=0 note=73 velocity=80 time=0.013541666666666667
note_on channel=0 note=73 velocity=0 time=0.11770833333333333
note_on channel=0 note=71 velocity=80 time=0.007291666666666667
note_on channel=0 note=49 velocity=0 time=0.09895833333333333
note_on channel=0 note=53 velocity=0 time=0
note_on channel=0 note=71 velocity=0 time=0.01875
note_on channel=0 note=69 velocity=80 time=0.007291666666666667
note_on channel=0 note=52 velocity=80 time=0
note_on channel=0 note=61 velocity=80 time=0
note_on channel=0 note=69 velocity=0 time=0.23645833333333333
note_on channel=0 note=63 velocity=80 time=0.013541666666666667
note_on channel=0 note=63 velocity=0 time=0.11770833333333333
note_on channel=0 note=61 velocity=80 time=0.007291666666666667
note_on channel=0 note=61 velocity=0 time=0
note_on channel=0 note=52 velocity=0 time=0.09895833333333333
note_on channel=0 note=61 velocity=0 time=0.01875
note_on channel=0 note=68 velocity=80 time=0.007291666666666667
note_on channel=0 note=51 velocity=80 time=0
note_on channel=0 note=60 velocity=80 time=0
note_on channel=0 note=68 velocity=0 time=0.23645833333333333
note_on channel=0 note=69 velocity=80 time=0.013541666666666667
note_on channel=0 note=51 velocity=0 time=0.22395833333333334
note_on channel=0 note=60 velocity=0 time=0
note_on channel=0 note=69 velocity=0 time=0.0125
note_on channel=0 note=66 velocity=80 time=0.013541666666666667
note_on channel=0 note=59 velocity=80 time=0
note_on channel=0 note=66 velocity=0 time=0.23645833333333333
note_on channel=0 note=59 velocity=0 time=0
note_on channel=0 note=61 velocity=80 time=0.013541666666666667
note_on channel=0 note=52 velocity=80 time=0
note_on channel=0 note=61 velocity=0 time=0.23645833333333333
note_on channel=0 note=52 velocity=0 time=0
note_on channel=0 note=58 velocity=80 time=0.013541666666666667
note_on channel=0 note=49 velocity=80 time=0
note_on channel=0 note=58 velocity=0 time=0.23645833333333333
note_on channel=0 note=64 velocity=80 time=0.013541666666666667
note_on channel=0 note=64 velocity=0 time=0.11770833333333333
note_on channel=0 note=66 velocity=80 time=0.007291666666666667
note_on channel=0 note=49 velocity=0 time=0.09895833333333333
note_on channel=0 note=66 velocity=0 time=0.01875
note_on channel=0 note=57 velocity=80 time=0.007291666666666667
note_on channel=0 note=62 velocity=80 time=0
note_on channel=0 note=48 velocity=80 time=0
note_on channel=0 note=57 velocity=0 time=0.23645833333333333
note_on channel=0 note=62 velocity=0 time=0
note_on channel=0 note=59 velocity=80 time=0.013541666666666667
note_on channel=0 note=59 velocity=0 time=0.11770833333333333
note_on channel=0 note=57 velocity=80 time=0.007291666666666667
note_on channel=0 note=48 velocity=0 time=0.09895833333333333
note_on channel=0 note=57 velocity=0 time=0.01875
note_on channel=0 note=56 velocity=80 time=0.007291666666666667
note_on channel=0 note=47 velocity=80 time=0
note_on channel=0 note=47 velocity=0 time=0.23645833333333333
note_on channel=0 note=48 velocity=80 time=0.013541666666666667
note_on channel=0 note=48 velocity=0 time=0.11770833333333333
note_on channel=0 note=47 velocity=80 time=0.007291666666666667
note_on channel=0 note=56 velocity=0 time=0.09895833333333333
note_on channel=0 note=47 velocity=0 time=0.01875
MetaMessage('time_signature', numerator=3, denominator=4, clocks_per_click=24, notated_32nd_notes_per_beat=8, time=0.007291666666666667)
note_on channel=0 note=55 velocity=80 time=0
note_on channel=0 note=46 velocity=80 time=0
note_on channel=0 note=55 velocity=0 time=0.23645833333333333
note_on channel=0 note=46 velocity=0 time=0
note_on channel=0 note=63 velocity=80 time=0.013541666666666667
note_on channel=0 note=47 velocity=80 time=0
note_on channel=0 note=47 velocity=0 time=0.11770833333333333
note_on channel=0 note=46 velocity=80 time=0.007291666666666667
note_on channel=0 note=63 velocity=0 time=0.11145833333333333
note_on channel=0 note=46 velocity=0 time=0.00625
note_on channel=0 note=54 velocity=80 time=0.007291666666666667
note_on channel=0 note=45 velocity=80 time=0
note_on channel=0 note=54 velocity=0 time=0.23645833333333333
note_on channel=0 note=61 velocity=80 time=0.013541666666666667
note_on channel=0 note=45 velocity=0 time=0.22395833333333334
note_on channel=0 note=53 velocity=80 time=0.026041666666666668
note_on channel=0 note=61 velocity=0 time=0.22395833333333334
note_on channel=0 note=63 velocity=80 time=0.026041666666666668
note_on channel=0 note=53 velocity=0 time=0.22395833333333334
note_on channel=0 note=63 velocity=0 time=0.0125
MetaMessage('time_signature', numerator=4, denominator=4, clocks_per_click=24, notated_32nd_notes_per_beat=8, time=0.013541666666666667)
note_on channel=0 note=52 velocity=80 time=0
note_on channel=0 note=61 velocity=80 time=0
note_on channel=0 note=37 velocity=80 time=0
note_on channel=0 note=44 velocity=80 time=0
note_on channel=0 note=52 velocity=0 time=1.8989583333333333
note_on channel=0 note=61 velocity=0 time=0
note_on channel=0 note=37 velocity=0 time=0
note_on channel=0 note=44 velocity=0 time=0
MetaMessage('end_of_track', time=0.0010416666666666667)
